<svg width="676" height="275" viewBox="0 0 676 275" fill="none" xmlns="http://www.w3.org/2000/svg">
<path d="M42 248.742H676" stroke="#CCCCCC"/>
<path d="M42 188.492H676" stroke="#CCCCCC"/>
<path d="M42 128.242H676" stroke="#CCCCCC"/>
<path d="M42 67.9922H676" stroke="#CCCCCC"/>
<path d="M42 7.74219H676" stroke="#CCCCCC"/>
<path d="M87.426 271.266V262.538H92.693V263.476H88.4828V266.425H92.4203V267.362H88.4828V270.328H92.7612V271.266H87.426ZM95.4672 262.538V271.266H94.4615V262.538H95.4672ZM97.3091 271.266V264.72H98.3148V271.266H97.3091ZM97.8205 263.629C97.6245 263.629 97.4554 263.562 97.3134 263.429C97.1742 263.295 97.1046 263.135 97.1046 262.947C97.1046 262.76 97.1742 262.599 97.3134 262.466C97.4554 262.332 97.6245 262.266 97.8205 262.266C98.0165 262.266 98.1841 262.332 98.3233 262.466C98.4654 262.599 98.5364 262.76 98.5364 262.947C98.5364 263.135 98.4654 263.295 98.3233 263.429C98.1841 263.562 98.0165 263.629 97.8205 263.629ZM99.9693 271.266V270.499L103.685 265.726V265.658H100.089V264.72H104.981V265.521L101.367 270.26V270.328H105.1V271.266H99.9693ZM108.575 271.419C108.16 271.419 107.784 271.341 107.446 271.185C107.108 271.026 106.839 270.797 106.64 270.499C106.442 270.197 106.342 269.834 106.342 269.408C106.342 269.033 106.416 268.729 106.564 268.496C106.711 268.26 106.909 268.075 107.156 267.942C107.403 267.808 107.676 267.709 107.974 267.643C108.275 267.575 108.578 267.521 108.882 267.482C109.28 267.43 109.602 267.392 109.849 267.366C110.099 267.338 110.281 267.291 110.395 267.226C110.511 267.161 110.569 267.047 110.569 266.885V266.851C110.569 266.43 110.454 266.104 110.224 265.871C109.997 265.638 109.652 265.521 109.189 265.521C108.709 265.521 108.332 265.626 108.059 265.837C107.787 266.047 107.595 266.271 107.484 266.51L106.53 266.169C106.7 265.771 106.927 265.462 107.211 265.24C107.498 265.016 107.811 264.859 108.149 264.771C108.49 264.68 108.825 264.635 109.155 264.635C109.365 264.635 109.606 264.661 109.879 264.712C110.155 264.76 110.42 264.861 110.676 265.014C110.934 265.168 111.149 265.399 111.319 265.709C111.49 266.018 111.575 266.433 111.575 266.953V271.266H110.569V270.379H110.518C110.45 270.521 110.336 270.673 110.177 270.835C110.018 270.997 109.807 271.135 109.542 271.249C109.278 271.362 108.956 271.419 108.575 271.419ZM108.729 270.516C109.126 270.516 109.461 270.438 109.734 270.281C110.01 270.125 110.217 269.923 110.356 269.676C110.498 269.429 110.569 269.169 110.569 268.896V267.976C110.527 268.027 110.433 268.074 110.288 268.116C110.146 268.156 109.981 268.192 109.794 268.223C109.609 268.251 109.429 268.277 109.253 268.3C109.079 268.32 108.939 268.337 108.831 268.351C108.569 268.385 108.325 268.44 108.098 268.517C107.873 268.591 107.692 268.703 107.552 268.854C107.416 269.001 107.348 269.203 107.348 269.459C107.348 269.808 107.477 270.072 107.736 270.251C107.997 270.428 108.328 270.516 108.729 270.516ZM113.547 271.266V262.538H114.553V265.76H114.638C114.712 265.646 114.814 265.501 114.945 265.325C115.078 265.146 115.269 264.987 115.516 264.848C115.766 264.706 116.104 264.635 116.53 264.635C117.081 264.635 117.567 264.773 117.987 265.048C118.408 265.324 118.736 265.714 118.972 266.22C119.208 266.726 119.325 267.322 119.325 268.01C119.325 268.703 119.208 269.304 118.972 269.812C118.736 270.318 118.409 270.71 117.992 270.989C117.574 271.264 117.093 271.402 116.547 271.402C116.127 271.402 115.79 271.332 115.537 271.193C115.284 271.051 115.09 270.891 114.953 270.712C114.817 270.53 114.712 270.379 114.638 270.26H114.519V271.266H113.547ZM114.536 267.993C114.536 268.487 114.608 268.923 114.753 269.301C114.898 269.676 115.11 269.97 115.388 270.183C115.666 270.393 116.007 270.499 116.411 270.499C116.831 270.499 117.182 270.388 117.463 270.166C117.747 269.942 117.96 269.641 118.102 269.263C118.247 268.882 118.32 268.459 118.32 267.993C118.32 267.533 118.249 267.118 118.107 266.749C117.968 266.376 117.756 266.082 117.472 265.866C117.191 265.648 116.837 265.538 116.411 265.538C116.002 265.538 115.658 265.642 115.379 265.849C115.101 266.054 114.891 266.341 114.749 266.71C114.607 267.077 114.536 267.504 114.536 267.993ZM123.608 271.402C122.977 271.402 122.433 271.263 121.976 270.984C121.521 270.703 121.171 270.311 120.923 269.808C120.679 269.303 120.557 268.714 120.557 268.044C120.557 267.374 120.679 266.783 120.923 266.271C121.171 265.757 121.514 265.357 121.955 265.07C122.398 264.78 122.915 264.635 123.506 264.635C123.847 264.635 124.183 264.692 124.516 264.805C124.848 264.919 125.151 265.104 125.423 265.359C125.696 265.612 125.914 265.947 126.075 266.365C126.237 266.783 126.318 267.297 126.318 267.908V268.334H121.273V267.464H125.296C125.296 267.095 125.222 266.766 125.074 266.476C124.929 266.186 124.722 265.957 124.452 265.79C124.185 265.622 123.869 265.538 123.506 265.538C123.105 265.538 122.759 265.638 122.466 265.837C122.176 266.033 121.953 266.288 121.797 266.604C121.641 266.919 121.563 267.257 121.563 267.618V268.197C121.563 268.692 121.648 269.111 121.818 269.455C121.992 269.795 122.232 270.055 122.539 270.234C122.845 270.411 123.202 270.499 123.608 270.499C123.872 270.499 124.111 270.462 124.324 270.388C124.54 270.311 124.726 270.197 124.882 270.047C125.039 269.893 125.159 269.703 125.244 269.476L126.216 269.749C126.114 270.078 125.942 270.368 125.7 270.618C125.459 270.865 125.161 271.058 124.806 271.197C124.45 271.334 124.051 271.402 123.608 271.402ZM130.695 264.72V265.572H127.303V264.72H130.695ZM128.291 263.152H129.297V269.391C129.297 269.675 129.338 269.888 129.421 270.03C129.506 270.169 129.614 270.263 129.744 270.311C129.878 270.357 130.019 270.379 130.166 270.379C130.277 270.379 130.368 270.374 130.439 270.362C130.51 270.348 130.567 270.337 130.61 270.328L130.814 271.232C130.746 271.257 130.651 271.283 130.529 271.308C130.406 271.337 130.252 271.351 130.064 271.351C129.78 271.351 129.502 271.29 129.229 271.168C128.959 271.045 128.735 270.859 128.556 270.609C128.379 270.359 128.291 270.044 128.291 269.663V263.152ZM133.354 267.328V271.266H132.348V262.538H133.354V265.743H133.439C133.593 265.405 133.823 265.136 134.129 264.938C134.439 264.736 134.851 264.635 135.365 264.635C135.811 264.635 136.202 264.724 136.537 264.903C136.872 265.08 137.132 265.351 137.317 265.717C137.504 266.081 137.598 266.544 137.598 267.107V271.266H136.593V267.175C136.593 266.655 136.458 266.253 136.188 265.969C135.921 265.682 135.55 265.538 135.075 265.538C134.746 265.538 134.45 265.608 134.189 265.747C133.931 265.886 133.726 266.089 133.575 266.357C133.428 266.624 133.354 266.947 133.354 267.328ZM149.87 262.538V271.266H148.847L144.091 264.413H144.006V271.266H142.949V262.538H143.972L148.745 269.408H148.83V262.538H149.87ZM154.593 271.402C153.962 271.402 153.418 271.263 152.96 270.984C152.506 270.703 152.155 270.311 151.908 269.808C151.664 269.303 151.541 268.714 151.541 268.044C151.541 267.374 151.664 266.783 151.908 266.271C152.155 265.757 152.499 265.357 152.939 265.07C153.382 264.78 153.899 264.635 154.49 264.635C154.831 264.635 155.168 264.692 155.5 264.805C155.833 264.919 156.135 265.104 156.408 265.359C156.681 265.612 156.898 265.947 157.06 266.365C157.222 266.783 157.303 267.297 157.303 267.908V268.334H152.257V267.464H156.28C156.28 267.095 156.206 266.766 156.058 266.476C155.914 266.186 155.706 265.957 155.436 265.79C155.169 265.622 154.854 265.538 154.49 265.538C154.09 265.538 153.743 265.638 153.45 265.837C153.161 266.033 152.938 266.288 152.781 266.604C152.625 266.919 152.547 267.257 152.547 267.618V268.197C152.547 268.692 152.632 269.111 152.803 269.455C152.976 269.795 153.216 270.055 153.523 270.234C153.83 270.411 154.186 270.499 154.593 270.499C154.857 270.499 155.095 270.462 155.308 270.388C155.524 270.311 155.71 270.197 155.867 270.047C156.023 269.893 156.144 269.703 156.229 269.476L157.2 269.749C157.098 270.078 156.926 270.368 156.685 270.618C156.443 270.865 156.145 271.058 155.79 271.197C155.435 271.334 155.036 271.402 154.593 271.402ZM160.316 271.266L158.321 264.72H159.378L160.793 269.732H160.861L162.259 264.72H163.333L164.713 269.714H164.781L166.196 264.72H167.253L165.259 271.266H164.27L162.838 266.237H162.736L161.304 271.266H160.316ZM171.429 264.72V265.572H168.037V264.72H171.429ZM169.026 263.152H170.031V269.391C170.031 269.675 170.073 269.888 170.155 270.03C170.24 270.169 170.348 270.263 170.479 270.311C170.612 270.357 170.753 270.379 170.901 270.379C171.012 270.379 171.102 270.374 171.173 270.362C171.244 270.348 171.301 270.337 171.344 270.328L171.548 271.232C171.48 271.257 171.385 271.283 171.263 271.308C171.141 271.337 170.986 271.351 170.798 271.351C170.514 271.351 170.236 271.29 169.963 271.168C169.693 271.045 169.469 270.859 169.29 270.609C169.114 270.359 169.026 270.044 169.026 269.663V263.152ZM175.531 271.402C174.94 271.402 174.421 271.261 173.975 270.98C173.532 270.699 173.186 270.305 172.936 269.8C172.688 269.294 172.565 268.703 172.565 268.027C172.565 267.345 172.688 266.75 172.936 266.241C173.186 265.733 173.532 265.338 173.975 265.057C174.421 264.776 174.94 264.635 175.531 264.635C176.122 264.635 176.639 264.776 177.082 265.057C177.528 265.338 177.874 265.733 178.122 266.241C178.372 266.75 178.497 267.345 178.497 268.027C178.497 268.703 178.372 269.294 178.122 269.8C177.874 270.305 177.528 270.699 177.082 270.98C176.639 271.261 176.122 271.402 175.531 271.402ZM175.531 270.499C175.98 270.499 176.349 270.384 176.639 270.153C176.928 269.923 177.143 269.621 177.282 269.246C177.421 268.871 177.491 268.464 177.491 268.027C177.491 267.589 177.421 267.182 177.282 266.804C177.143 266.426 176.928 266.121 176.639 265.888C176.349 265.655 175.98 265.538 175.531 265.538C175.082 265.538 174.713 265.655 174.423 265.888C174.133 266.121 173.919 266.426 173.779 266.804C173.64 267.182 173.57 267.589 173.57 268.027C173.57 268.464 173.64 268.871 173.779 269.246C173.919 269.621 174.133 269.923 174.423 270.153C174.713 270.384 175.082 270.499 175.531 270.499ZM181.037 267.328V271.266H180.032V264.72H181.003V265.743H181.089C181.242 265.411 181.475 265.143 181.787 264.942C182.1 264.737 182.503 264.635 182.998 264.635C183.441 264.635 183.829 264.726 184.161 264.908C184.493 265.087 184.752 265.359 184.937 265.726C185.121 266.089 185.214 266.55 185.214 267.107V271.266H184.208V267.175C184.208 266.661 184.074 266.26 183.807 265.973C183.54 265.683 183.174 265.538 182.708 265.538C182.387 265.538 182.1 265.608 181.847 265.747C181.597 265.886 181.4 266.089 181.255 266.357C181.11 266.624 181.037 266.947 181.037 267.328Z" fill="#6C727F"/>
<path d="M242.295 271.266V262.538H245.346C245.954 262.538 246.456 262.643 246.85 262.854C247.245 263.061 247.539 263.341 247.733 263.693C247.926 264.043 248.022 264.43 248.022 264.857C248.022 265.232 247.956 265.541 247.822 265.786C247.691 266.03 247.518 266.223 247.302 266.365C247.089 266.507 246.858 266.612 246.608 266.68V266.766C246.875 266.783 247.143 266.876 247.413 267.047C247.683 267.217 247.909 267.462 248.091 267.78C248.272 268.098 248.363 268.487 248.363 268.947C248.363 269.385 248.264 269.778 248.065 270.128C247.866 270.477 247.552 270.754 247.123 270.959C246.694 271.163 246.136 271.266 245.449 271.266H242.295ZM243.352 270.328H245.449C246.139 270.328 246.629 270.195 246.919 269.928C247.211 269.658 247.358 269.331 247.358 268.947C247.358 268.652 247.282 268.379 247.132 268.129C246.981 267.876 246.767 267.675 246.488 267.524C246.21 267.371 245.88 267.294 245.5 267.294H243.352V270.328ZM243.352 266.374H245.312C245.63 266.374 245.917 266.311 246.173 266.186C246.431 266.061 246.636 265.885 246.787 265.658C246.94 265.43 247.017 265.163 247.017 264.857C247.017 264.473 246.883 264.148 246.616 263.881C246.349 263.611 245.926 263.476 245.346 263.476H243.352V266.374ZM252.708 271.402C252.077 271.402 251.533 271.263 251.076 270.984C250.621 270.703 250.27 270.311 250.023 269.808C249.779 269.303 249.657 268.714 249.657 268.044C249.657 267.374 249.779 266.783 250.023 266.271C250.27 265.757 250.614 265.357 251.054 265.07C251.498 264.78 252.015 264.635 252.605 264.635C252.946 264.635 253.283 264.692 253.615 264.805C253.948 264.919 254.25 265.104 254.523 265.359C254.796 265.612 255.013 265.947 255.175 266.365C255.337 266.783 255.418 267.297 255.418 267.908V268.334H250.373V267.464H254.395C254.395 267.095 254.321 266.766 254.174 266.476C254.029 266.186 253.821 265.957 253.551 265.79C253.284 265.622 252.969 265.538 252.605 265.538C252.205 265.538 251.858 265.638 251.566 265.837C251.276 266.033 251.053 266.288 250.897 266.604C250.74 266.919 250.662 267.257 250.662 267.618V268.197C250.662 268.692 250.748 269.111 250.918 269.455C251.091 269.795 251.331 270.055 251.638 270.234C251.945 270.411 252.301 270.499 252.708 270.499C252.972 270.499 253.211 270.462 253.424 270.388C253.64 270.311 253.826 270.197 253.982 270.047C254.138 269.893 254.259 269.703 254.344 269.476L255.316 269.749C255.213 270.078 255.042 270.368 254.8 270.618C254.559 270.865 254.26 271.058 253.905 271.197C253.55 271.334 253.151 271.402 252.708 271.402ZM257.953 267.328V271.266H256.948V264.72H257.919V265.743H258.005C258.158 265.411 258.391 265.143 258.703 264.942C259.016 264.737 259.419 264.635 259.914 264.635C260.357 264.635 260.745 264.726 261.077 264.908C261.409 265.087 261.668 265.359 261.853 265.726C262.037 266.089 262.13 266.55 262.13 267.107V271.266H261.124V267.175C261.124 266.661 260.99 266.26 260.723 265.973C260.456 265.683 260.09 265.538 259.624 265.538C259.303 265.538 259.016 265.608 258.763 265.747C258.513 265.886 258.316 266.089 258.171 266.357C258.026 266.624 257.953 266.947 257.953 267.328ZM270.82 262.538H271.876V268.777C271.876 269.334 271.774 269.807 271.57 270.196C271.365 270.585 271.077 270.881 270.705 271.082C270.332 271.284 269.893 271.385 269.388 271.385C268.911 271.385 268.486 271.298 268.114 271.125C267.741 270.949 267.449 270.699 267.236 270.375C267.023 270.051 266.916 269.666 266.916 269.22H267.956C267.956 269.467 268.017 269.683 268.139 269.868C268.264 270.05 268.435 270.192 268.651 270.294C268.866 270.396 269.112 270.447 269.388 270.447C269.692 270.447 269.95 270.384 270.163 270.256C270.376 270.128 270.538 269.94 270.649 269.693C270.763 269.443 270.82 269.138 270.82 268.777V262.538ZM276.517 271.402C275.926 271.402 275.408 271.261 274.962 270.98C274.518 270.699 274.172 270.305 273.922 269.8C273.675 269.294 273.551 268.703 273.551 268.027C273.551 267.345 273.675 266.75 273.922 266.241C274.172 265.733 274.518 265.338 274.962 265.057C275.408 264.776 275.926 264.635 276.517 264.635C277.108 264.635 277.625 264.776 278.068 265.057C278.514 265.338 278.861 265.733 279.108 266.241C279.358 266.75 279.483 267.345 279.483 268.027C279.483 268.703 279.358 269.294 279.108 269.8C278.861 270.305 278.514 270.699 278.068 270.98C277.625 271.261 277.108 271.402 276.517 271.402ZM276.517 270.499C276.966 270.499 277.335 270.384 277.625 270.153C277.915 269.923 278.129 269.621 278.268 269.246C278.408 268.871 278.477 268.464 278.477 268.027C278.477 267.589 278.408 267.182 278.268 266.804C278.129 266.426 277.915 266.121 277.625 265.888C277.335 265.655 276.966 265.538 276.517 265.538C276.068 265.538 275.699 265.655 275.409 265.888C275.119 266.121 274.905 266.426 274.766 266.804C274.626 267.182 274.557 267.589 274.557 268.027C274.557 268.464 274.626 268.871 274.766 269.246C274.905 269.621 275.119 269.923 275.409 270.153C275.699 270.384 276.068 270.499 276.517 270.499ZM282.024 267.328V271.266H281.018V262.538H282.024V265.743H282.109C282.262 265.405 282.493 265.136 282.799 264.938C283.109 264.736 283.521 264.635 284.035 264.635C284.481 264.635 284.872 264.724 285.207 264.903C285.542 265.08 285.802 265.351 285.987 265.717C286.174 266.081 286.268 266.544 286.268 267.107V271.266H285.262V267.175C285.262 266.655 285.127 266.253 284.858 265.969C284.591 265.682 284.22 265.538 283.745 265.538C283.416 265.538 283.12 265.608 282.859 265.747C282.6 265.886 282.396 266.089 282.245 266.357C282.098 266.624 282.024 266.947 282.024 267.328ZM290.034 271.419C289.619 271.419 289.243 271.341 288.905 271.185C288.567 271.026 288.298 270.797 288.099 270.499C287.901 270.197 287.801 269.834 287.801 269.408C287.801 269.033 287.875 268.729 288.023 268.496C288.17 268.26 288.368 268.075 288.615 267.942C288.862 267.808 289.135 267.709 289.433 267.643C289.734 267.575 290.037 267.521 290.341 267.482C290.739 267.43 291.061 267.392 291.308 267.366C291.558 267.338 291.74 267.291 291.854 267.226C291.97 267.161 292.028 267.047 292.028 266.885V266.851C292.028 266.43 291.913 266.104 291.683 265.871C291.456 265.638 291.111 265.521 290.648 265.521C290.168 265.521 289.791 265.626 289.518 265.837C289.246 266.047 289.054 266.271 288.943 266.51L287.989 266.169C288.159 265.771 288.386 265.462 288.67 265.24C288.957 265.016 289.27 264.859 289.608 264.771C289.949 264.68 290.284 264.635 290.614 264.635C290.824 264.635 291.065 264.661 291.338 264.712C291.614 264.76 291.879 264.861 292.135 265.014C292.393 265.168 292.608 265.399 292.778 265.709C292.949 266.018 293.034 266.433 293.034 266.953V271.266H292.028V270.379H291.977C291.909 270.521 291.795 270.673 291.636 270.835C291.477 270.997 291.266 271.135 291.001 271.249C290.737 271.362 290.415 271.419 290.034 271.419ZM290.188 270.516C290.585 270.516 290.92 270.438 291.193 270.281C291.469 270.125 291.676 269.923 291.815 269.676C291.957 269.429 292.028 269.169 292.028 268.896V267.976C291.986 268.027 291.892 268.074 291.747 268.116C291.605 268.156 291.44 268.192 291.253 268.223C291.068 268.251 290.888 268.277 290.712 268.3C290.538 268.32 290.398 268.337 290.29 268.351C290.028 268.385 289.784 268.44 289.557 268.517C289.332 268.591 289.151 268.703 289.011 268.854C288.875 269.001 288.807 269.203 288.807 269.459C288.807 269.808 288.936 270.072 289.195 270.251C289.456 270.428 289.787 270.516 290.188 270.516ZM295.875 267.328V271.266H294.87V264.72H295.841V265.743H295.926C296.08 265.411 296.313 265.143 296.625 264.942C296.938 264.737 297.341 264.635 297.836 264.635C298.279 264.635 298.667 264.726 298.999 264.908C299.331 265.087 299.59 265.359 299.775 265.726C299.959 266.089 300.051 266.55 300.051 267.107V271.266H299.046V267.175C299.046 266.661 298.912 266.26 298.645 265.973C298.378 265.683 298.012 265.538 297.546 265.538C297.225 265.538 296.938 265.608 296.685 265.747C296.435 265.886 296.238 266.089 296.093 266.357C295.948 266.624 295.875 266.947 295.875 267.328ZM302.895 267.328V271.266H301.889V264.72H302.861V265.743H302.946C303.099 265.411 303.332 265.143 303.645 264.942C303.957 264.737 304.361 264.635 304.855 264.635C305.298 264.635 305.686 264.726 306.018 264.908C306.351 265.087 306.609 265.359 306.794 265.726C306.979 266.089 307.071 266.55 307.071 267.107V271.266H306.065V267.175C306.065 266.661 305.932 266.26 305.665 265.973C305.398 265.683 305.031 265.538 304.565 265.538C304.244 265.538 303.957 265.608 303.705 265.747C303.455 265.886 303.257 266.089 303.112 266.357C302.967 266.624 302.895 266.947 302.895 267.328ZM313.545 266.186L312.642 266.442C312.585 266.291 312.501 266.145 312.39 266.003C312.282 265.858 312.135 265.739 311.947 265.645C311.76 265.551 311.52 265.504 311.227 265.504C310.826 265.504 310.493 265.597 310.225 265.781C309.961 265.963 309.829 266.195 309.829 266.476C309.829 266.726 309.92 266.923 310.102 267.068C310.284 267.213 310.568 267.334 310.954 267.43L311.926 267.669C312.511 267.811 312.947 268.028 313.234 268.321C313.521 268.611 313.664 268.984 313.664 269.442C313.664 269.817 313.556 270.152 313.341 270.447C313.127 270.743 312.829 270.976 312.446 271.146C312.062 271.317 311.616 271.402 311.108 271.402C310.44 271.402 309.887 271.257 309.45 270.967C309.012 270.678 308.735 270.254 308.619 269.697L309.574 269.459C309.664 269.811 309.836 270.075 310.089 270.251C310.345 270.428 310.679 270.516 311.091 270.516C311.559 270.516 311.931 270.416 312.207 270.217C312.485 270.016 312.625 269.774 312.625 269.493C312.625 269.266 312.545 269.075 312.386 268.922C312.227 268.766 311.983 268.649 311.653 268.572L310.562 268.317C309.963 268.175 309.522 267.955 309.241 267.656C308.963 267.355 308.824 266.979 308.824 266.527C308.824 266.158 308.927 265.831 309.135 265.547C309.345 265.263 309.63 265.04 309.991 264.878C310.355 264.716 310.767 264.635 311.227 264.635C311.875 264.635 312.383 264.777 312.752 265.061C313.125 265.345 313.389 265.72 313.545 266.186ZM317.923 271.402C317.292 271.402 316.748 271.263 316.29 270.984C315.836 270.703 315.485 270.311 315.238 269.808C314.994 269.303 314.871 268.714 314.871 268.044C314.871 267.374 314.994 266.783 315.238 266.271C315.485 265.757 315.829 265.357 316.269 265.07C316.712 264.78 317.229 264.635 317.82 264.635C318.161 264.635 318.498 264.692 318.83 264.805C319.163 264.919 319.465 265.104 319.738 265.359C320.011 265.612 320.228 265.947 320.39 266.365C320.552 266.783 320.633 267.297 320.633 267.908V268.334H315.587V267.464H319.61C319.61 267.095 319.536 266.766 319.388 266.476C319.244 266.186 319.036 265.957 318.766 265.79C318.499 265.622 318.184 265.538 317.82 265.538C317.42 265.538 317.073 265.638 316.781 265.837C316.491 266.033 316.268 266.288 316.112 266.604C315.955 266.919 315.877 267.257 315.877 267.618V268.197C315.877 268.692 315.962 269.111 316.133 269.455C316.306 269.795 316.546 270.055 316.853 270.234C317.16 270.411 317.516 270.499 317.923 270.499C318.187 270.499 318.425 270.462 318.638 270.388C318.854 270.311 319.04 270.197 319.197 270.047C319.353 269.893 319.474 269.703 319.559 269.476L320.531 269.749C320.428 270.078 320.256 270.368 320.015 270.618C319.773 270.865 319.475 271.058 319.12 271.197C318.765 271.334 318.366 271.402 317.923 271.402ZM323.168 267.328V271.266H322.163V264.72H323.134V265.743H323.219C323.373 265.411 323.606 265.143 323.918 264.942C324.231 264.737 324.634 264.635 325.129 264.635C325.572 264.635 325.96 264.726 326.292 264.908C326.624 265.087 326.883 265.359 327.067 265.726C327.252 266.089 327.344 266.55 327.344 267.107V271.266H326.339V267.175C326.339 266.661 326.205 266.26 325.938 265.973C325.671 265.683 325.305 265.538 324.839 265.538C324.518 265.538 324.231 265.608 323.978 265.747C323.728 265.886 323.531 266.089 323.386 266.357C323.241 266.624 323.168 266.947 323.168 267.328Z" fill="#6C727F"/>
<path d="M395.861 262.538H396.917V268.777C396.917 269.334 396.815 269.807 396.611 270.196C396.406 270.585 396.118 270.881 395.746 271.082C395.373 271.284 394.934 271.385 394.429 271.385C393.952 271.385 393.527 271.298 393.155 271.125C392.782 270.949 392.49 270.699 392.277 270.375C392.064 270.051 391.957 269.666 391.957 269.22H392.997C392.997 269.467 393.058 269.683 393.18 269.868C393.305 270.05 393.476 270.192 393.692 270.294C393.907 270.396 394.153 270.447 394.429 270.447C394.733 270.447 394.991 270.384 395.204 270.256C395.417 270.128 395.579 269.94 395.69 269.693C395.804 269.443 395.861 269.138 395.861 268.777V262.538ZM400.825 271.419C400.41 271.419 400.034 271.341 399.696 271.185C399.358 271.026 399.089 270.797 398.89 270.499C398.692 270.197 398.592 269.834 398.592 269.408C398.592 269.033 398.666 268.729 398.814 268.496C398.961 268.26 399.159 268.075 399.406 267.942C399.653 267.808 399.926 267.709 400.224 267.643C400.525 267.575 400.828 267.521 401.132 267.482C401.53 267.43 401.852 267.392 402.099 267.366C402.349 267.338 402.531 267.291 402.645 267.226C402.761 267.161 402.819 267.047 402.819 266.885V266.851C402.819 266.43 402.704 266.104 402.474 265.871C402.247 265.638 401.902 265.521 401.439 265.521C400.959 265.521 400.582 265.626 400.309 265.837C400.037 266.047 399.845 266.271 399.734 266.51L398.78 266.169C398.95 265.771 399.177 265.462 399.461 265.24C399.748 265.016 400.061 264.859 400.399 264.771C400.74 264.68 401.075 264.635 401.405 264.635C401.615 264.635 401.856 264.661 402.129 264.712C402.405 264.76 402.67 264.861 402.926 265.014C403.184 265.168 403.399 265.399 403.569 265.709C403.74 266.018 403.825 266.433 403.825 266.953V271.266H402.819V270.379H402.768C402.7 270.521 402.586 270.673 402.427 270.835C402.268 270.997 402.057 271.135 401.792 271.249C401.528 271.362 401.206 271.419 400.825 271.419ZM400.979 270.516C401.376 270.516 401.711 270.438 401.984 270.281C402.26 270.125 402.467 269.923 402.606 269.676C402.748 269.429 402.819 269.169 402.819 268.896V267.976C402.777 268.027 402.683 268.074 402.538 268.116C402.396 268.156 402.231 268.192 402.044 268.223C401.859 268.251 401.679 268.277 401.503 268.3C401.329 268.32 401.189 268.337 401.081 268.351C400.819 268.385 400.575 268.44 400.348 268.517C400.123 268.591 399.942 268.703 399.802 268.854C399.666 269.001 399.598 269.203 399.598 269.459C399.598 269.808 399.727 270.072 399.986 270.251C400.247 270.428 400.578 270.516 400.979 270.516ZM405.661 271.266V264.72H406.632V265.743H406.718C406.854 265.393 407.074 265.122 407.378 264.929C407.682 264.733 408.047 264.635 408.473 264.635C408.905 264.635 409.264 264.733 409.551 264.929C409.841 265.122 410.067 265.393 410.229 265.743H410.297C410.465 265.405 410.716 265.136 411.051 264.938C411.387 264.736 411.789 264.635 412.257 264.635C412.843 264.635 413.321 264.818 413.693 265.185C414.066 265.548 414.252 266.115 414.252 266.885V271.266H413.246V266.885C413.246 266.402 413.114 266.057 412.85 265.849C412.585 265.642 412.274 265.538 411.916 265.538C411.456 265.538 411.1 265.678 410.847 265.956C410.594 266.232 410.468 266.581 410.468 267.004V271.266H409.445V266.783C409.445 266.411 409.324 266.111 409.083 265.884C408.841 265.653 408.53 265.538 408.149 265.538C407.888 265.538 407.644 265.608 407.416 265.747C407.192 265.886 407.01 266.08 406.871 266.327C406.735 266.571 406.666 266.854 406.666 267.175V271.266H405.661ZM418.835 271.402C418.204 271.402 417.66 271.263 417.203 270.984C416.748 270.703 416.397 270.311 416.15 269.808C415.906 269.303 415.784 268.714 415.784 268.044C415.784 267.374 415.906 266.783 416.15 266.271C416.397 265.757 416.741 265.357 417.181 265.07C417.624 264.78 418.142 264.635 418.732 264.635C419.073 264.635 419.41 264.692 419.742 264.805C420.075 264.919 420.377 265.104 420.65 265.359C420.923 265.612 421.14 265.947 421.302 266.365C421.464 266.783 421.545 267.297 421.545 267.908V268.334H416.499V267.464H420.522C420.522 267.095 420.448 266.766 420.301 266.476C420.156 266.186 419.948 265.957 419.678 265.79C419.411 265.622 419.096 265.538 418.732 265.538C418.332 265.538 417.985 265.638 417.693 265.837C417.403 266.033 417.18 266.288 417.024 266.604C416.867 266.919 416.789 267.257 416.789 267.618V268.197C416.789 268.692 416.874 269.111 417.045 269.455C417.218 269.795 417.458 270.055 417.765 270.234C418.072 270.411 418.428 270.499 418.835 270.499C419.099 270.499 419.338 270.462 419.551 270.388C419.767 270.311 419.953 270.197 420.109 270.047C420.265 269.893 420.386 269.703 420.471 269.476L421.443 269.749C421.34 270.078 421.169 270.368 420.927 270.618C420.686 270.865 420.387 271.058 420.032 271.197C419.677 271.334 419.278 271.402 418.835 271.402ZM427.711 266.186L426.808 266.442C426.751 266.291 426.667 266.145 426.556 266.003C426.448 265.858 426.301 265.739 426.113 265.645C425.926 265.551 425.686 265.504 425.393 265.504C424.992 265.504 424.659 265.597 424.392 265.781C424.127 265.963 423.995 266.195 423.995 266.476C423.995 266.726 424.086 266.923 424.268 267.068C424.45 267.213 424.734 267.334 425.12 267.43L426.092 267.669C426.677 267.811 427.113 268.028 427.4 268.321C427.687 268.611 427.83 268.984 427.83 269.442C427.83 269.817 427.722 270.152 427.507 270.447C427.294 270.743 426.995 270.976 426.612 271.146C426.228 271.317 425.782 271.402 425.274 271.402C424.606 271.402 424.053 271.257 423.616 270.967C423.178 270.678 422.901 270.254 422.785 269.697L423.74 269.459C423.83 269.811 424.002 270.075 424.255 270.251C424.511 270.428 424.845 270.516 425.257 270.516C425.725 270.516 426.097 270.416 426.373 270.217C426.651 270.016 426.791 269.774 426.791 269.493C426.791 269.266 426.711 269.075 426.552 268.922C426.393 268.766 426.149 268.649 425.819 268.572L424.728 268.317C424.129 268.175 423.688 267.955 423.407 267.656C423.129 267.355 422.99 266.979 422.99 266.527C422.99 266.158 423.093 265.831 423.301 265.547C423.511 265.263 423.796 265.04 424.157 264.878C424.521 264.716 424.933 264.635 425.393 264.635C426.041 264.635 426.549 264.777 426.919 265.061C427.291 265.345 427.555 265.72 427.711 266.186ZM439.776 262.538V271.266H438.753L433.998 264.413H433.912V271.266H432.856V262.538H433.878L438.651 269.408H438.736V262.538H439.776ZM444.499 271.402C443.868 271.402 443.324 271.263 442.867 270.984C442.412 270.703 442.061 270.311 441.814 269.808C441.57 269.303 441.448 268.714 441.448 268.044C441.448 267.374 441.57 266.783 441.814 266.271C442.061 265.757 442.405 265.357 442.845 265.07C443.289 264.78 443.806 264.635 444.396 264.635C444.737 264.635 445.074 264.692 445.406 264.805C445.739 264.919 446.041 265.104 446.314 265.359C446.587 265.612 446.804 265.947 446.966 266.365C447.128 266.783 447.209 267.297 447.209 267.908V268.334H442.164V267.464H446.186C446.186 267.095 446.112 266.766 445.965 266.476C445.82 266.186 445.612 265.957 445.343 265.79C445.075 265.622 444.76 265.538 444.396 265.538C443.996 265.538 443.649 265.638 443.357 265.837C443.067 266.033 442.844 266.288 442.688 266.604C442.531 266.919 442.453 267.257 442.453 267.618V268.197C442.453 268.692 442.539 269.111 442.709 269.455C442.882 269.795 443.122 270.055 443.429 270.234C443.736 270.411 444.093 270.499 444.499 270.499C444.763 270.499 445.002 270.462 445.215 270.388C445.431 270.311 445.617 270.197 445.773 270.047C445.929 269.893 446.05 269.703 446.135 269.476L447.107 269.749C447.004 270.078 446.833 270.368 446.591 270.618C446.35 270.865 446.051 271.058 445.696 271.197C445.341 271.334 444.942 271.402 444.499 271.402ZM450.222 271.266L448.227 264.72H449.284L450.699 269.732H450.767L452.165 264.72H453.239L454.619 269.714H454.688L456.102 264.72H457.159L455.165 271.266H454.176L452.744 266.237H452.642L451.21 271.266H450.222ZM461.335 264.72V265.572H457.943V264.72H461.335ZM458.932 263.152H459.938V269.391C459.938 269.675 459.979 269.888 460.061 270.03C460.146 270.169 460.254 270.263 460.385 270.311C460.519 270.357 460.659 270.379 460.807 270.379C460.918 270.379 461.009 270.374 461.08 270.362C461.151 270.348 461.208 270.337 461.25 270.328L461.455 271.232C461.387 271.257 461.291 271.283 461.169 271.308C461.047 271.337 460.892 271.351 460.705 271.351C460.421 271.351 460.142 271.29 459.869 271.168C459.6 271.045 459.375 270.859 459.196 270.609C459.02 270.359 458.932 270.044 458.932 269.663V263.152ZM465.437 271.402C464.846 271.402 464.328 271.261 463.882 270.98C463.438 270.699 463.092 270.305 462.842 269.8C462.595 269.294 462.471 268.703 462.471 268.027C462.471 267.345 462.595 266.75 462.842 266.241C463.092 265.733 463.438 265.338 463.882 265.057C464.328 264.776 464.846 264.635 465.437 264.635C466.028 264.635 466.545 264.776 466.988 265.057C467.434 265.338 467.781 265.733 468.028 266.241C468.278 266.75 468.403 267.345 468.403 268.027C468.403 268.703 468.278 269.294 468.028 269.8C467.781 270.305 467.434 270.699 466.988 270.98C466.545 271.261 466.028 271.402 465.437 271.402ZM465.437 270.499C465.886 270.499 466.255 270.384 466.545 270.153C466.835 269.923 467.049 269.621 467.188 269.246C467.328 268.871 467.397 268.464 467.397 268.027C467.397 267.589 467.328 267.182 467.188 266.804C467.049 266.426 466.835 266.121 466.545 265.888C466.255 265.655 465.886 265.538 465.437 265.538C464.988 265.538 464.619 265.655 464.329 265.888C464.039 266.121 463.825 266.426 463.686 266.804C463.546 267.182 463.477 267.589 463.477 268.027C463.477 268.464 463.546 268.871 463.686 269.246C463.825 269.621 464.039 269.923 464.329 270.153C464.619 270.384 464.988 270.499 465.437 270.499ZM470.944 267.328V271.266H469.938V264.72H470.91V265.743H470.995C471.148 265.411 471.381 265.143 471.694 264.942C472.006 264.737 472.41 264.635 472.904 264.635C473.347 264.635 473.735 264.726 474.067 264.908C474.4 265.087 474.658 265.359 474.843 265.726C475.028 266.089 475.12 266.55 475.12 267.107V271.266H474.114V267.175C474.114 266.661 473.981 266.26 473.714 265.973C473.447 265.683 473.08 265.538 472.614 265.538C472.293 265.538 472.006 265.608 471.753 265.747C471.503 265.886 471.306 266.089 471.161 266.357C471.016 266.624 470.944 266.947 470.944 267.328Z" fill="#6C727F"/>
<path d="M549.189 262.538H550.246V268.777C550.246 269.334 550.143 269.807 549.939 270.196C549.734 270.585 549.446 270.881 549.074 271.082C548.702 271.284 548.263 271.385 547.757 271.385C547.28 271.385 546.855 271.298 546.483 271.125C546.111 270.949 545.818 270.699 545.605 270.375C545.392 270.051 545.285 269.666 545.285 269.22H546.325C546.325 269.467 546.386 269.683 546.508 269.868C546.633 270.05 546.804 270.192 547.02 270.294C547.236 270.396 547.481 270.447 547.757 270.447C548.061 270.447 548.319 270.384 548.532 270.256C548.746 270.128 548.907 269.94 549.018 269.693C549.132 269.443 549.189 269.138 549.189 268.777V262.538ZM556.352 268.589V264.72H557.358V271.266H556.352V270.158H556.284C556.131 270.49 555.892 270.773 555.568 271.006C555.244 271.236 554.835 271.351 554.341 271.351C553.932 271.351 553.568 271.261 553.25 271.082C552.932 270.901 552.682 270.628 552.5 270.264C552.318 269.898 552.227 269.436 552.227 268.879V264.72H553.233V268.811C553.233 269.288 553.366 269.669 553.633 269.953C553.903 270.237 554.247 270.379 554.665 270.379C554.915 270.379 555.169 270.315 555.427 270.188C555.689 270.06 555.907 269.864 556.084 269.599C556.263 269.335 556.352 268.999 556.352 268.589ZM561.126 271.419C560.711 271.419 560.335 271.341 559.997 271.185C559.659 271.026 559.39 270.797 559.191 270.499C558.992 270.197 558.893 269.834 558.893 269.408C558.893 269.033 558.967 268.729 559.115 268.496C559.262 268.26 559.46 268.075 559.707 267.942C559.954 267.808 560.227 267.709 560.525 267.643C560.826 267.575 561.129 267.521 561.433 267.482C561.83 267.43 562.153 267.392 562.4 267.366C562.65 267.338 562.832 267.291 562.945 267.226C563.062 267.161 563.12 267.047 563.12 266.885V266.851C563.12 266.43 563.005 266.104 562.775 265.871C562.548 265.638 562.203 265.521 561.74 265.521C561.259 265.521 560.883 265.626 560.61 265.837C560.338 266.047 560.146 266.271 560.035 266.51L559.08 266.169C559.251 265.771 559.478 265.462 559.762 265.24C560.049 265.016 560.362 264.859 560.7 264.771C561.041 264.68 561.376 264.635 561.705 264.635C561.916 264.635 562.157 264.661 562.43 264.712C562.705 264.76 562.971 264.861 563.227 265.014C563.485 265.168 563.7 265.399 563.87 265.709C564.041 266.018 564.126 266.433 564.126 266.953V271.266H563.12V270.379H563.069C563.001 270.521 562.887 270.673 562.728 270.835C562.569 270.997 562.357 271.135 562.093 271.249C561.829 271.362 561.507 271.419 561.126 271.419ZM561.279 270.516C561.677 270.516 562.012 270.438 562.285 270.281C562.561 270.125 562.768 269.923 562.907 269.676C563.049 269.429 563.12 269.169 563.12 268.896V267.976C563.078 268.027 562.984 268.074 562.839 268.116C562.697 268.156 562.532 268.192 562.345 268.223C562.16 268.251 561.98 268.277 561.803 268.3C561.63 268.32 561.49 268.337 561.382 268.351C561.12 268.385 560.876 268.44 560.649 268.517C560.424 268.591 560.242 268.703 560.103 268.854C559.967 269.001 559.899 269.203 559.899 269.459C559.899 269.808 560.028 270.072 560.286 270.251C560.548 270.428 560.879 270.516 561.279 270.516ZM566.967 267.328V271.266H565.961V264.72H566.933V265.743H567.018C567.172 265.411 567.405 265.143 567.717 264.942C568.03 264.737 568.433 264.635 568.927 264.635C569.371 264.635 569.758 264.726 570.091 264.908C570.423 265.087 570.682 265.359 570.866 265.726C571.051 266.089 571.143 266.55 571.143 267.107V271.266H570.138V267.175C570.138 266.661 570.004 266.26 569.737 265.973C569.47 265.683 569.104 265.538 568.638 265.538C568.317 265.538 568.03 265.608 567.777 265.747C567.527 265.886 567.329 266.089 567.184 266.357C567.04 266.624 566.967 266.947 566.967 267.328ZM576.85 262.538L579.441 269.885H579.544L582.134 262.538H583.242L580.038 271.266H578.947L575.742 262.538H576.85ZM584.465 271.266V264.72H585.471V271.266H584.465ZM584.977 263.629C584.781 263.629 584.612 263.562 584.47 263.429C584.33 263.295 584.261 263.135 584.261 262.947C584.261 262.76 584.33 262.599 584.47 262.466C584.612 262.332 584.781 262.266 584.977 262.266C585.173 262.266 585.34 262.332 585.48 262.466C585.622 262.599 585.693 262.76 585.693 262.947C585.693 263.135 585.622 263.295 585.48 263.429C585.34 263.562 585.173 263.629 584.977 263.629ZM588.319 262.538V271.266H587.313V262.538H588.319ZM591.166 262.538V271.266H590.161V262.538H591.166ZM594.934 271.419C594.52 271.419 594.143 271.341 593.805 271.185C593.467 271.026 593.199 270.797 593 270.499C592.801 270.197 592.702 269.834 592.702 269.408C592.702 269.033 592.775 268.729 592.923 268.496C593.071 268.26 593.268 268.075 593.515 267.942C593.763 267.808 594.035 267.709 594.334 267.643C594.635 267.575 594.937 267.521 595.241 267.482C595.639 267.43 595.961 267.392 596.209 267.366C596.459 267.338 596.64 267.291 596.754 267.226C596.871 267.161 596.929 267.047 596.929 266.885V266.851C596.929 266.43 596.814 266.104 596.584 265.871C596.356 265.638 596.011 265.521 595.548 265.521C595.068 265.521 594.692 265.626 594.419 265.837C594.146 266.047 593.954 266.271 593.844 266.51L592.889 266.169C593.059 265.771 593.287 265.462 593.571 265.24C593.858 265.016 594.17 264.859 594.508 264.771C594.849 264.68 595.184 264.635 595.514 264.635C595.724 264.635 595.966 264.661 596.238 264.712C596.514 264.76 596.78 264.861 597.035 265.014C597.294 265.168 597.508 265.399 597.679 265.709C597.849 266.018 597.934 266.433 597.934 266.953V271.266H596.929V270.379H596.878C596.809 270.521 596.696 270.673 596.537 270.835C596.378 270.997 596.166 271.135 595.902 271.249C595.638 271.362 595.315 271.419 594.934 271.419ZM595.088 270.516C595.486 270.516 595.821 270.438 596.094 270.281C596.369 270.125 596.577 269.923 596.716 269.676C596.858 269.429 596.929 269.169 596.929 268.896V267.976C596.886 268.027 596.792 268.074 596.648 268.116C596.506 268.156 596.341 268.192 596.153 268.223C595.969 268.251 595.788 268.277 595.612 268.3C595.439 268.32 595.298 268.337 595.19 268.351C594.929 268.385 594.684 268.44 594.457 268.517C594.233 268.591 594.051 268.703 593.912 268.854C593.775 269.001 593.707 269.203 593.707 269.459C593.707 269.808 593.836 270.072 594.095 270.251C594.356 270.428 594.687 270.516 595.088 270.516ZM599.77 271.266V264.72H600.742V265.709H600.81C600.929 265.385 601.145 265.122 601.458 264.92C601.77 264.719 602.122 264.618 602.514 264.618C602.588 264.618 602.681 264.619 602.791 264.622C602.902 264.625 602.986 264.629 603.043 264.635V265.658C603.009 265.649 602.931 265.636 602.808 265.619C602.689 265.599 602.563 265.589 602.429 265.589C602.111 265.589 601.827 265.656 601.577 265.79C601.33 265.92 601.134 266.102 600.989 266.335C600.847 266.565 600.776 266.828 600.776 267.124V271.266H599.77ZM606.78 271.402C606.149 271.402 605.605 271.263 605.148 270.984C604.693 270.703 604.343 270.311 604.095 269.808C603.851 269.303 603.729 268.714 603.729 268.044C603.729 267.374 603.851 266.783 604.095 266.271C604.343 265.757 604.686 265.357 605.127 265.07C605.57 264.78 606.087 264.635 606.678 264.635C607.019 264.635 607.355 264.692 607.688 264.805C608.02 264.919 608.323 265.104 608.595 265.359C608.868 265.612 609.085 265.947 609.247 266.365C609.409 266.783 609.49 267.297 609.49 267.908V268.334H604.445V267.464H608.468C608.468 267.095 608.394 266.766 608.246 266.476C608.101 266.186 607.894 265.957 607.624 265.79C607.357 265.622 607.041 265.538 606.678 265.538C606.277 265.538 605.931 265.638 605.638 265.837C605.348 266.033 605.125 266.288 604.969 266.604C604.813 266.919 604.735 267.257 604.735 267.618V268.197C604.735 268.692 604.82 269.111 604.99 269.455C605.164 269.795 605.404 270.055 605.71 270.234C606.017 270.411 606.374 270.499 606.78 270.499C607.044 270.499 607.283 270.462 607.496 270.388C607.712 270.311 607.898 270.197 608.054 270.047C608.21 269.893 608.331 269.703 608.416 269.476L609.388 269.749C609.286 270.078 609.114 270.368 608.872 270.618C608.631 270.865 608.333 271.058 607.977 271.197C607.622 271.334 607.223 271.402 606.78 271.402ZM612.946 271.419C612.531 271.419 612.155 271.341 611.817 271.185C611.479 271.026 611.21 270.797 611.012 270.499C610.813 270.197 610.713 269.834 610.713 269.408C610.713 269.033 610.787 268.729 610.935 268.496C611.083 268.26 611.28 268.075 611.527 267.942C611.774 267.808 612.047 267.709 612.345 267.643C612.646 267.575 612.949 267.521 613.253 267.482C613.651 267.43 613.973 267.392 614.22 267.366C614.47 267.338 614.652 267.291 614.766 267.226C614.882 267.161 614.941 267.047 614.941 266.885V266.851C614.941 266.43 614.825 266.104 614.595 265.871C614.368 265.638 614.023 265.521 613.56 265.521C613.08 265.521 612.703 265.626 612.431 265.837C612.158 266.047 611.966 266.271 611.855 266.51L610.901 266.169C611.071 265.771 611.298 265.462 611.583 265.24C611.869 265.016 612.182 264.859 612.52 264.771C612.861 264.68 613.196 264.635 613.526 264.635C613.736 264.635 613.977 264.661 614.25 264.712C614.526 264.76 614.791 264.861 615.047 265.014C615.306 265.168 615.52 265.399 615.691 265.709C615.861 266.018 615.946 266.433 615.946 266.953V271.266H614.941V270.379H614.889C614.821 270.521 614.708 270.673 614.548 270.835C614.389 270.997 614.178 271.135 613.914 271.249C613.649 271.362 613.327 271.419 612.946 271.419ZM613.1 270.516C613.497 270.516 613.833 270.438 614.105 270.281C614.381 270.125 614.588 269.923 614.727 269.676C614.869 269.429 614.941 269.169 614.941 268.896V267.976C614.898 268.027 614.804 268.074 614.659 268.116C614.517 268.156 614.352 268.192 614.165 268.223C613.98 268.251 613.8 268.277 613.624 268.3C613.45 268.32 613.31 268.337 613.202 268.351C612.941 268.385 612.696 268.44 612.469 268.517C612.244 268.591 612.063 268.703 611.923 268.854C611.787 269.001 611.719 269.203 611.719 269.459C611.719 269.808 611.848 270.072 612.107 270.251C612.368 270.428 612.699 270.516 613.1 270.516ZM618.787 262.538V271.266H617.782V262.538H618.787Z" fill="#6C727F"/>
<path d="M27.25 253.119C26.608 253.119 26.0611 252.945 25.6094 252.595C25.1577 252.243 24.8125 251.733 24.5739 251.065C24.3352 250.395 24.2159 249.585 24.2159 248.636C24.2159 247.693 24.3352 246.888 24.5739 246.22C24.8153 245.55 25.1619 245.038 25.6136 244.686C26.0682 244.331 26.6136 244.153 27.25 244.153C27.8864 244.153 28.4304 244.331 28.8821 244.686C29.3366 245.038 29.6832 245.55 29.9219 246.22C30.1634 246.888 30.2841 247.693 30.2841 248.636C30.2841 249.585 30.1648 250.395 29.9261 251.065C29.6875 251.733 29.3423 252.243 28.8906 252.595C28.4389 252.945 27.892 253.119 27.25 253.119ZM27.25 252.182C27.8864 252.182 28.3807 251.875 28.733 251.261C29.0852 250.648 29.2614 249.773 29.2614 248.636C29.2614 247.881 29.1804 247.237 29.0185 246.706C28.8594 246.175 28.6293 245.77 28.3281 245.491C28.0298 245.213 27.6705 245.074 27.25 245.074C26.6193 245.074 26.1264 245.385 25.7713 246.007C25.4162 246.626 25.2386 247.503 25.2386 248.636C25.2386 249.392 25.3182 250.034 25.4773 250.562C25.6364 251.091 25.8651 251.493 26.1634 251.768C26.4645 252.044 26.8267 252.182 27.25 252.182Z" fill="#6C727F"/>
<path d="M9.837 192.75V191.983L12.7177 188.83C13.0558 188.46 13.3342 188.139 13.5529 187.866C13.7717 187.591 13.9336 187.332 14.0387 187.091C14.1467 186.847 14.2006 186.591 14.2006 186.324C14.2006 186.017 14.1268 185.751 13.979 185.527C13.8342 185.303 13.6353 185.129 13.3825 185.007C13.1296 184.885 12.8455 184.824 12.5302 184.824C12.195 184.824 11.9023 184.893 11.6523 185.033C11.4052 185.169 11.2134 185.361 11.0771 185.608C10.9435 185.855 10.8768 186.145 10.8768 186.477H9.87109C9.87109 185.966 9.98899 185.517 10.2248 185.131C10.4606 184.744 10.7816 184.443 11.1879 184.227C11.5969 184.011 12.0558 183.903 12.5643 183.903C13.0756 183.903 13.5288 184.011 13.9237 184.227C14.3185 184.443 14.6282 184.734 14.8526 185.101C15.0771 185.467 15.1893 185.875 15.1893 186.324C15.1893 186.645 15.131 186.959 15.0146 187.266C14.9009 187.57 14.7021 187.909 14.418 188.284C14.1367 188.656 13.7461 189.111 13.2461 189.648L11.2859 191.744V191.812H15.3427V192.75H9.837ZM19.8299 192.869C19.3299 192.869 18.8796 192.77 18.479 192.571C18.0785 192.372 17.7575 192.099 17.516 191.753C17.2745 191.406 17.1424 191.011 17.1197 190.568H18.1424C18.1822 190.963 18.3612 191.29 18.6793 191.548C19.0004 191.804 19.3839 191.932 19.8299 191.932C20.1879 191.932 20.506 191.848 20.7844 191.68C21.0657 191.513 21.2859 191.283 21.445 190.99C21.6069 190.695 21.6879 190.361 21.6879 189.989C21.6879 189.608 21.604 189.268 21.4364 188.97C21.2717 188.669 21.0444 188.432 20.7546 188.259C20.4648 188.085 20.1339 187.997 19.7617 187.994C19.4947 187.991 19.2205 188.033 18.9393 188.118C18.658 188.2 18.4265 188.307 18.2447 188.438L17.256 188.318L17.7844 184.023H22.3185V184.96H18.6708L18.364 187.534H18.4151C18.5941 187.392 18.8185 187.274 19.0884 187.18C19.3583 187.087 19.6396 187.04 19.9322 187.04C20.4663 187.04 20.9421 187.168 21.3597 187.423C21.7802 187.676 22.1097 188.023 22.3484 188.463C22.5898 188.903 22.7106 189.406 22.7106 189.972C22.7106 190.528 22.5856 191.026 22.3356 191.463C22.0884 191.898 21.7475 192.241 21.3129 192.494C20.8782 192.744 20.3839 192.869 19.8299 192.869ZM27.25 192.869C26.608 192.869 26.0611 192.695 25.6094 192.345C25.1577 191.993 24.8125 191.483 24.5739 190.815C24.3352 190.145 24.2159 189.335 24.2159 188.386C24.2159 187.443 24.3352 186.638 24.5739 185.97C24.8153 185.3 25.1619 184.788 25.6136 184.436C26.0682 184.081 26.6136 183.903 27.25 183.903C27.8864 183.903 28.4304 184.081 28.8821 184.436C29.3366 184.788 29.6832 185.3 29.9219 185.97C30.1634 186.638 30.2841 187.443 30.2841 188.386C30.2841 189.335 30.1648 190.145 29.9261 190.815C29.6875 191.483 29.3423 191.993 28.8906 192.345C28.4389 192.695 27.892 192.869 27.25 192.869ZM27.25 191.932C27.8864 191.932 28.3807 191.625 28.733 191.011C29.0852 190.398 29.2614 189.523 29.2614 188.386C29.2614 187.631 29.1804 186.987 29.0185 186.456C28.8594 185.925 28.6293 185.52 28.3281 185.241C28.0298 184.963 27.6705 184.824 27.25 184.824C26.6193 184.824 26.1264 185.135 25.7713 185.757C25.4162 186.376 25.2386 187.253 25.2386 188.386C25.2386 189.142 25.3182 189.784 25.4773 190.312C25.6364 190.841 25.8651 191.243 26.1634 191.518C26.4645 191.794 26.8267 191.932 27.25 191.932Z" fill="#6C727F"/>
<path d="M12.3299 132.619C11.8299 132.619 11.3796 132.52 10.979 132.321C10.5785 132.122 10.2575 131.849 10.016 131.503C9.7745 131.156 9.6424 130.761 9.61967 130.318H10.6424C10.6822 130.713 10.8612 131.04 11.1793 131.298C11.5004 131.554 11.8839 131.682 12.3299 131.682C12.6879 131.682 13.006 131.598 13.2844 131.43C13.5657 131.263 13.7859 131.033 13.945 130.74C14.1069 130.445 14.1879 130.111 14.1879 129.739C14.1879 129.358 14.104 129.018 13.9364 128.72C13.7717 128.419 13.5444 128.182 13.2546 128.009C12.9648 127.835 12.6339 127.747 12.2617 127.744C11.9947 127.741 11.7205 127.783 11.4393 127.868C11.158 127.95 10.9265 128.057 10.7447 128.188L9.75604 128.068L10.2844 123.773H14.8185V124.71H11.1708L10.864 127.284H10.9151C11.0941 127.142 11.3185 127.024 11.5884 126.93C11.8583 126.837 12.1396 126.79 12.4322 126.79C12.9663 126.79 13.4421 126.918 13.8597 127.173C14.2802 127.426 14.6097 127.773 14.8484 128.213C15.0898 128.653 15.2106 129.156 15.2106 129.722C15.2106 130.278 15.0856 130.776 14.8356 131.213C14.5884 131.648 14.2475 131.991 13.8129 132.244C13.3782 132.494 12.8839 132.619 12.3299 132.619ZM19.75 132.619C19.108 132.619 18.5611 132.445 18.1094 132.095C17.6577 131.743 17.3125 131.233 17.0739 130.565C16.8352 129.895 16.7159 129.085 16.7159 128.136C16.7159 127.193 16.8352 126.388 17.0739 125.72C17.3153 125.05 17.6619 124.538 18.1136 124.186C18.5682 123.831 19.1136 123.653 19.75 123.653C20.3864 123.653 20.9304 123.831 21.3821 124.186C21.8366 124.538 22.1832 125.05 22.4219 125.72C22.6634 126.388 22.7841 127.193 22.7841 128.136C22.7841 129.085 22.6648 129.895 22.4261 130.565C22.1875 131.233 21.8423 131.743 21.3906 132.095C20.9389 132.445 20.392 132.619 19.75 132.619ZM19.75 131.682C20.3864 131.682 20.8807 131.375 21.233 130.761C21.5852 130.148 21.7614 129.273 21.7614 128.136C21.7614 127.381 21.6804 126.737 21.5185 126.206C21.3594 125.675 21.1293 125.27 20.8281 124.991C20.5298 124.713 20.1705 124.574 19.75 124.574C19.1193 124.574 18.6264 124.885 18.2713 125.507C17.9162 126.126 17.7386 127.003 17.7386 128.136C17.7386 128.892 17.8182 129.534 17.9773 130.062C18.1364 130.591 18.3651 130.993 18.6634 131.268C18.9645 131.544 19.3267 131.682 19.75 131.682ZM27.25 132.619C26.608 132.619 26.0611 132.445 25.6094 132.095C25.1577 131.743 24.8125 131.233 24.5739 130.565C24.3352 129.895 24.2159 129.085 24.2159 128.136C24.2159 127.193 24.3352 126.388 24.5739 125.72C24.8153 125.05 25.1619 124.538 25.6136 124.186C26.0682 123.831 26.6136 123.653 27.25 123.653C27.8864 123.653 28.4304 123.831 28.8821 124.186C29.3366 124.538 29.6832 125.05 29.9219 125.72C30.1634 126.388 30.2841 127.193 30.2841 128.136C30.2841 129.085 30.1648 129.895 29.9261 130.565C29.6875 131.233 29.3423 131.743 28.8906 132.095C28.4389 132.445 27.892 132.619 27.25 132.619ZM27.25 131.682C27.8864 131.682 28.3807 131.375 28.733 130.761C29.0852 130.148 29.2614 129.273 29.2614 128.136C29.2614 127.381 29.1804 126.737 29.0185 126.206C28.8594 125.675 28.6293 125.27 28.3281 124.991C28.0298 124.713 27.6705 124.574 27.25 124.574C26.6193 124.574 26.1264 124.885 25.7713 125.507C25.4162 126.126 25.2386 127.003 25.2386 128.136C25.2386 128.892 25.3182 129.534 25.4773 130.062C25.6364 130.591 25.8651 130.993 26.1634 131.268C26.4645 131.544 26.8267 131.682 27.25 131.682Z" fill="#6C727F"/>
<path d="M10.6371 72.25L14.5405 64.5284V64.4602H10.0405V63.5227H15.6314V64.5114L11.745 72.25H10.6371ZM19.8299 72.3693C19.3299 72.3693 18.8796 72.2699 18.479 72.071C18.0785 71.8722 17.7575 71.5994 17.516 71.2528C17.2745 70.9062 17.1424 70.5114 17.1197 70.0682H18.1424C18.1822 70.4631 18.3612 70.7898 18.6793 71.0483C19.0004 71.304 19.3839 71.4318 19.8299 71.4318C20.1879 71.4318 20.506 71.348 20.7844 71.1804C21.0657 71.0128 21.2859 70.7827 21.445 70.4901C21.6069 70.1946 21.6879 69.8608 21.6879 69.4886C21.6879 69.108 21.604 68.7685 21.4364 68.4702C21.2717 68.169 21.0444 67.9318 20.7546 67.7585C20.4648 67.5852 20.1339 67.4972 19.7617 67.4943C19.4947 67.4915 19.2205 67.5327 18.9393 67.6179C18.658 67.7003 18.4265 67.8068 18.2447 67.9375L17.256 67.8182L17.7844 63.5227H22.3185V64.4602H18.6708L18.364 67.0341H18.4151C18.5941 66.892 18.8185 66.7741 19.0884 66.6804C19.3583 66.5866 19.6396 66.5398 19.9322 66.5398C20.4663 66.5398 20.9421 66.6676 21.3597 66.9233C21.7802 67.1761 22.1097 67.5227 22.3484 67.9631C22.5898 68.4034 22.7106 68.9062 22.7106 69.4716C22.7106 70.0284 22.5856 70.5256 22.3356 70.9631C22.0884 71.3977 21.7475 71.7415 21.3129 71.9943C20.8782 72.2443 20.3839 72.3693 19.8299 72.3693ZM27.25 72.3693C26.608 72.3693 26.0611 72.1946 25.6094 71.8452C25.1577 71.4929 24.8125 70.983 24.5739 70.3153C24.3352 69.6449 24.2159 68.8352 24.2159 67.8864C24.2159 66.9432 24.3352 66.1378 24.5739 65.4702C24.8153 64.7997 25.1619 64.2884 25.6136 63.9361C26.0682 63.581 26.6136 63.4034 27.25 63.4034C27.8864 63.4034 28.4304 63.581 28.8821 63.9361C29.3366 64.2884 29.6832 64.7997 29.9219 65.4702C30.1634 66.1378 30.2841 66.9432 30.2841 67.8864C30.2841 68.8352 30.1648 69.6449 29.9261 70.3153C29.6875 70.983 29.3423 71.4929 28.8906 71.8452C28.4389 72.1946 27.892 72.3693 27.25 72.3693ZM27.25 71.4318C27.8864 71.4318 28.3807 71.125 28.733 70.5114C29.0852 69.8977 29.2614 69.0227 29.2614 67.8864C29.2614 67.1307 29.1804 66.4872 29.0185 65.956C28.8594 65.4247 28.6293 65.0199 28.3281 64.7415C28.0298 64.4631 27.6705 64.3239 27.25 64.3239C26.6193 64.3239 26.1264 64.6349 25.7713 65.2571C25.4162 65.8764 25.2386 66.7528 25.2386 67.8864C25.2386 68.642 25.3182 69.2841 25.4773 69.8125C25.6364 70.3409 25.8651 70.7429 26.1634 71.0185C26.4645 71.294 26.8267 71.4318 27.25 71.4318Z" fill="#6C727F"/>
<path d="M4.3505 3.27273V12H3.29368V4.38068H3.24254L1.11186 5.79545V4.72159L3.29368 3.27273H4.3505ZM7.86186 10.8068L7.79368 11.267C7.74538 11.5909 7.67152 11.9375 7.57209 12.3068C7.4755 12.6761 7.37464 13.0241 7.26953 13.3509C7.16442 13.6776 7.07777 13.9375 7.00959 14.1307H6.24254C6.27947 13.9489 6.32777 13.7088 6.38743 13.4105C6.44709 13.1122 6.50675 12.7784 6.56641 12.4091C6.62891 12.0426 6.68004 11.6676 6.71982 11.2841L6.77095 10.8068H7.86186ZM12.25 12.1193C11.608 12.1193 11.0611 11.9446 10.6094 11.5952C10.1577 11.2429 9.8125 10.733 9.57386 10.0653C9.33523 9.39489 9.21591 8.58523 9.21591 7.63636C9.21591 6.69318 9.33523 5.88778 9.57386 5.22017C9.81534 4.54972 10.1619 4.03835 10.6136 3.68608C11.0682 3.33097 11.6136 3.15341 12.25 3.15341C12.8864 3.15341 13.4304 3.33097 13.8821 3.68608C14.3366 4.03835 14.6832 4.54972 14.9219 5.22017C15.1634 5.88778 15.2841 6.69318 15.2841 7.63636C15.2841 8.58523 15.1648 9.39489 14.9261 10.0653C14.6875 10.733 14.3423 11.2429 13.8906 11.5952C13.4389 11.9446 12.892 12.1193 12.25 12.1193ZM12.25 11.1818C12.8864 11.1818 13.3807 10.875 13.733 10.2614C14.0852 9.64773 14.2614 8.77273 14.2614 7.63636C14.2614 6.88068 14.1804 6.23722 14.0185 5.70597C13.8594 5.17472 13.6293 4.76989 13.3281 4.49148C13.0298 4.21307 12.6705 4.07386 12.25 4.07386C11.6193 4.07386 11.1264 4.38494 10.7713 5.0071C10.4162 5.62642 10.2386 6.50284 10.2386 7.63636C10.2386 8.39205 10.3182 9.03409 10.4773 9.5625C10.6364 10.0909 10.8651 10.4929 11.1634 10.7685C11.4645 11.044 11.8267 11.1818 12.25 11.1818ZM19.75 12.1193C19.108 12.1193 18.5611 11.9446 18.1094 11.5952C17.6577 11.2429 17.3125 10.733 17.0739 10.0653C16.8352 9.39489 16.7159 8.58523 16.7159 7.63636C16.7159 6.69318 16.8352 5.88778 17.0739 5.22017C17.3153 4.54972 17.6619 4.03835 18.1136 3.68608C18.5682 3.33097 19.1136 3.15341 19.75 3.15341C20.3864 3.15341 20.9304 3.33097 21.3821 3.68608C21.8366 4.03835 22.1832 4.54972 22.4219 5.22017C22.6634 5.88778 22.7841 6.69318 22.7841 7.63636C22.7841 8.58523 22.6648 9.39489 22.4261 10.0653C22.1875 10.733 21.8423 11.2429 21.3906 11.5952C20.9389 11.9446 20.392 12.1193 19.75 12.1193ZM19.75 11.1818C20.3864 11.1818 20.8807 10.875 21.233 10.2614C21.5852 9.64773 21.7614 8.77273 21.7614 7.63636C21.7614 6.88068 21.6804 6.23722 21.5185 5.70597C21.3594 5.17472 21.1293 4.76989 20.8281 4.49148C20.5298 4.21307 20.1705 4.07386 19.75 4.07386C19.1193 4.07386 18.6264 4.38494 18.2713 5.0071C17.9162 5.62642 17.7386 6.50284 17.7386 7.63636C17.7386 8.39205 17.8182 9.03409 17.9773 9.5625C18.1364 10.0909 18.3651 10.4929 18.6634 10.7685C18.9645 11.044 19.3267 11.1818 19.75 11.1818ZM27.25 12.1193C26.608 12.1193 26.0611 11.9446 25.6094 11.5952C25.1577 11.2429 24.8125 10.733 24.5739 10.0653C24.3352 9.39489 24.2159 8.58523 24.2159 7.63636C24.2159 6.69318 24.3352 5.88778 24.5739 5.22017C24.8153 4.54972 25.1619 4.03835 25.6136 3.68608C26.0682 3.33097 26.6136 3.15341 27.25 3.15341C27.8864 3.15341 28.4304 3.33097 28.8821 3.68608C29.3366 4.03835 29.6832 4.54972 29.9219 5.22017C30.1634 5.88778 30.2841 6.69318 30.2841 7.63636C30.2841 8.58523 30.1648 9.39489 29.9261 10.0653C29.6875 10.733 29.3423 11.2429 28.8906 11.5952C28.4389 11.9446 27.892 12.1193 27.25 12.1193ZM27.25 11.1818C27.8864 11.1818 28.3807 10.875 28.733 10.2614C29.0852 9.64773 29.2614 8.77273 29.2614 7.63636C29.2614 6.88068 29.1804 6.23722 29.0185 5.70597C28.8594 5.17472 28.6293 4.76989 28.3281 4.49148C28.0298 4.21307 27.6705 4.07386 27.25 4.07386C26.6193 4.07386 26.1264 4.38494 25.7713 5.0071C25.4162 5.62642 25.2386 6.50284 25.2386 7.63636C25.2386 8.39205 25.3182 9.03409 25.4773 9.5625C25.6364 10.0909 25.8651 10.4929 26.1634 10.7685C26.4645 11.044 26.8267 11.1818 27.25 11.1818Z" fill="#6C727F"/>
<path d="M92.8516 34.25H76.8516V248.74H92.8516V34.25Z" fill="#6369E1"/>
<path d="M241.352 179.094H225.352V248.743H241.352V179.094Z" fill="#6369E1"/>
<path d="M389.852 157.156H373.852V248.736H389.852V157.156Z" fill="#6369E1"/>
<path d="M538.352 227.047H522.352V248.737H538.352V227.047Z" fill="#6369E1"/>
<path d="M112.852 167.281H96.8516V248.739H112.852V167.281Z" fill="#7261E0"/>
<path d="M261.352 192.586H245.352V248.739H261.352V192.586Z" fill="#7261E0"/>
<path d="M409.852 119.805H393.852V248.74H409.852V119.805Z" fill="#7261E0"/>
<path d="M558.352 225.125H542.352V248.743H558.352V225.125Z" fill="#7261E0"/>
<path d="M132.852 119.086H116.852V248.744H132.852V119.086Z" fill="#8A60DF"/>
<path d="M281.352 187.773H265.352V248.746H281.352V187.773Z" fill="#8A60DF"/>
<path d="M429.852 163.914H413.852V248.746H429.852V163.914Z" fill="#8A60DF"/>
<path d="M578.352 241.992H562.352V248.74H578.352V241.992Z" fill="#8A60DF"/>
<path d="M152.852 153.305H136.852V248.741H152.852V153.305Z" fill="#A260DF"/>
<path d="M301.352 168.484H285.352V248.737H301.352V168.484Z" fill="#A260DF"/>
<path d="M449.852 75.7031H433.852V248.741H449.852V75.7031Z" fill="#A260DF"/>
<path d="M598.352 240.789H582.352V248.742H598.352V240.789Z" fill="#A260DF"/>
<path d="M172.852 215.484H156.852V248.742H172.852V215.484Z" fill="#BC60DF"/>
<path d="M321.352 216.688H305.352V248.741H321.352V216.688Z" fill="#BC60DF"/>
<path d="M469.852 118.844H453.852V248.743H469.852V118.844Z" fill="#BC60DF"/>
<path d="M618.352 234.039H602.352V248.74H618.352V234.039Z" fill="#BC60DF"/>
<path d="M192.852 143.664H176.852V248.74H192.852V143.664Z" fill="#D460DC"/>
<path d="M341.352 120.289H325.352V248.742H341.352V120.289Z" fill="#D460DC"/>
<path d="M489.852 192.352H473.852V248.746H489.852V192.352Z" fill="#D460DC"/>
<path d="M638.352 235.969H622.352V248.742H638.352V235.969Z" fill="#D460DC"/>
</svg>
