<svg width="48" height="56" viewBox="0 0 48 56" fill="none" xmlns="http://www.w3.org/2000/svg">
<path d="M10.7579 46.5988L1.15905 29.9724C0.789993 29.3332 0.595703 28.6081 0.595703 27.87C0.595703 27.1319 0.789993 26.4068 1.15905 25.7676L10.7579 9.14167C11.127 8.50236 11.6579 7.97148 12.2972 7.60239C12.9365 7.2333 13.6618 7.03902 14.4 7.03906H33.5976C34.3358 7.03908 35.0609 7.2334 35.7001 7.60248C36.3394 7.97156 36.8702 8.50241 37.2393 9.14167L46.8382 25.7676C47.2073 26.4068 47.4016 27.132 47.4016 27.8702C47.4016 28.6084 47.2073 29.3335 46.8382 29.9728L37.2393 46.5988C36.8702 47.2379 36.3394 47.7687 35.7001 48.1377C35.0608 48.5068 34.3357 48.701 33.5976 48.701H14.4C13.6617 48.7011 12.9365 48.5068 12.2972 48.1377C11.6579 47.7686 11.127 47.2377 10.7579 46.5984V46.5988Z" fill="url(#paint0_linear_18461_2065)"/>
<path opacity="0.07" d="M44.1928 36.0916L30.0764 21.9745L23.9971 20.3477L18.5366 22.3771L16.4277 27.8713L18.1233 33.9886L33.0931 48.9584L36.2697 48.8173L44.1928 36.0916Z" fill="black"/>
<path d="M23.9954 19.3906C19.3111 19.3906 15.5137 23.1881 15.5137 27.8727C15.5137 32.557 19.3111 36.3545 23.9954 36.3545C28.6796 36.3545 32.4767 32.557 32.4767 27.8727C32.4767 23.1881 28.6793 19.3906 23.9954 19.3906ZM23.9954 34.3082C20.4411 34.3082 17.5596 31.4267 17.5596 27.8724C17.5596 24.318 20.4411 21.4369 23.9954 21.4369C27.5497 21.4369 30.4312 24.3184 30.4312 27.8727C30.4312 31.427 27.5497 34.3085 23.9954 34.3085" fill="white"/>
<path d="M19.9707 27.5429V30.1793C20.3608 30.849 20.9112 31.4113 21.5723 31.8157V27.5429H19.9707ZM23.1465 25.3203V32.4183C23.419 32.4684 23.6976 32.4988 23.9839 32.4988C24.245 32.4988 24.4995 32.4713 24.7493 32.4296V25.3203H23.1465ZM26.4709 28.6384V31.7692C27.1426 31.3421 27.6941 30.7506 28.0732 30.0506V28.6387L26.4709 28.6384ZM30.1001 33.0948L29.2214 33.9742C29.147 34.0488 29.1052 34.1499 29.1052 34.2552C29.1052 34.3606 29.147 34.4617 29.2214 34.5362L32.5545 37.8682C32.6291 37.9426 32.7302 37.9844 32.8355 37.9844C32.9409 37.9844 33.042 37.9426 33.1166 37.8682L33.9952 36.9899C34.0692 36.9151 34.1107 36.8142 34.1107 36.709C34.1107 36.6039 34.0692 36.503 33.9952 36.4282L30.6618 33.0948C30.5872 33.0207 30.4862 32.979 30.3809 32.979C30.2757 32.979 30.1748 33.0207 30.1001 33.0948Z" fill="white"/>
<defs>
<linearGradient id="paint0_linear_18461_2065" x1="23.9988" y1="7.03943" x2="23.9988" y2="48.6363" gradientUnits="userSpaceOnUse">
<stop stop-color="#4387FD"/>
<stop offset="1" stop-color="#4683EA"/>
</linearGradient>
</defs>
</svg>
