<svg width="114" height="92" viewBox="0 0 114 92" fill="none" xmlns="http://www.w3.org/2000/svg">
<path fill-rule="evenodd" clip-rule="evenodd" d="M57.0002 81.605C88.4805 81.605 114 70.3197 114 56.3984V66.4811C114 80.4023 88.4805 91.6876 57.0002 91.6876C25.5199 91.6876 0 80.4023 0 66.4811L0 56.3984C0 70.3197 25.5199 81.605 57.0002 81.605Z" fill="#383E4F"/>
<path opacity="0.3" fill-rule="evenodd" clip-rule="evenodd" d="M57.0002 91.6831C88.4805 91.6831 114 80.3978 114 66.4765V66.7916C114 80.7129 88.4805 91.9981 57.0002 91.9981C25.5199 91.9981 0 80.7129 0 66.7916L0 66.4765C0 80.3978 25.5199 91.6831 57.0002 91.6831ZM0.0393904 65.5312C0.0131402 65.846 4.78978e-06 66.1612 0 66.4765L0 65.5312H0.0393904ZM113.961 65.5312H114V66.4765C114 66.1612 113.987 65.846 113.961 65.5312Z" fill="#232730"/>
<path fill-rule="evenodd" clip-rule="evenodd" d="M57.0002 81.5971C88.4805 81.5971 114 70.3118 114 56.3906V56.7056C114 70.6269 88.4805 81.9122 57.0002 81.9122C25.5199 81.9122 0 70.6269 0 56.7056L0 56.3906C0 70.3118 25.5199 81.5971 57.0002 81.5971ZM0.0393904 55.4453C0.0131409 55.7601 5.53309e-06 56.0753 0 56.3906L0 55.4453H0.0393904ZM113.961 55.4453H114V56.3906C114 56.0742 113.987 55.7591 113.961 55.4453Z" fill="white" fill-opacity="0.2"/>
<path opacity="0.28" fill-rule="evenodd" clip-rule="evenodd" d="M57.0002 81.605C88.4805 81.605 114 70.3197 114 56.3984V66.4811C114 80.4023 88.4805 91.6876 57.0002 91.6876C25.5199 91.6876 0 80.4023 0 66.4811L0 56.3984C0 70.3197 25.5199 81.605 57.0002 81.605Z" fill="url(#paint0_linear_2969_2420)"/>
<g filter="url(#filter0_i_2969_2420)">
<path d="M114 56.3941C114 70.3153 88.4805 81.6006 57.0002 81.6006C25.5199 81.6006 0 70.3153 0 56.3941C0 42.4728 25.5199 31.1875 57.0002 31.1875C88.4805 31.1875 114 42.4728 114 56.3941Z" fill="#383E4F"/>
</g>
<path fill-rule="evenodd" clip-rule="evenodd" d="M57.0002 71.1988C88.4805 71.1988 114 59.9135 114 45.9922V56.0748C114 69.9961 88.4805 81.2814 57.0002 81.2814C25.5199 81.2814 0 69.9961 0 56.0748L0 45.9922C0 59.9135 25.5199 71.1988 57.0002 71.1988Z" fill="#383E4F"/>
<path opacity="0.3" fill-rule="evenodd" clip-rule="evenodd" d="M57.0002 81.2846C88.4805 81.2846 114 69.9993 114 56.0781V56.3931C114 70.3144 88.4805 81.5997 57.0002 81.5997C25.5199 81.5997 0 70.3144 0 56.3931L0 56.0781C0 69.9993 25.5199 81.2846 57.0002 81.2846ZM0.0393904 55.1328C0.0131402 55.4476 4.78978e-06 55.7628 0 56.0781L0 55.1328H0.0393904ZM113.961 55.1328H114V56.0781C114 55.7628 113.987 55.4476 113.961 55.1328Z" fill="#232730"/>
<path fill-rule="evenodd" clip-rule="evenodd" d="M57.0002 71.1987C88.4805 71.1987 114 59.9134 114 45.9921V46.3072C114 60.2285 88.4805 71.5138 57.0002 71.5138C25.5199 71.5138 0 60.2285 0 46.3072L0 45.9921C0 59.9134 25.5199 71.1987 57.0002 71.1987ZM0.0393904 45.0469C0.0131409 45.3616 5.53309e-06 45.6768 0 45.9921L0 45.0469H0.0393904ZM113.961 45.0469H114V45.9921C114 45.6758 113.987 45.3607 113.961 45.0469Z" fill="white" fill-opacity="0.2"/>
<path opacity="0.28" fill-rule="evenodd" clip-rule="evenodd" d="M57.0002 71.1988C88.4805 71.1988 114 59.9135 114 45.9922V56.0748C114 69.9961 88.4805 81.2814 57.0002 81.2814C25.5199 81.2814 0 69.9961 0 56.0748L0 45.9922C0 59.9135 25.5199 71.1988 57.0002 71.1988Z" fill="url(#paint1_linear_2969_2420)"/>
<g filter="url(#filter1_i_2969_2420)">
<path d="M114 45.9956C114 59.9169 88.4805 71.2022 57.0002 71.2022C25.5199 71.2022 0 59.9169 0 45.9956C0 32.0744 25.5199 20.7891 57.0002 20.7891C88.4805 20.7891 114 32.0744 114 45.9956Z" fill="#383E4F"/>
</g>
<path fill-rule="evenodd" clip-rule="evenodd" d="M57.0002 60.8238C88.4805 60.8238 114 49.5385 114 35.6172V45.6998C114 59.6211 88.4805 70.9064 57.0002 70.9064C25.5199 70.9064 0 59.6211 0 45.6998L0 35.6172C0 49.5385 25.5199 60.8238 57.0002 60.8238Z" fill="#383E4F"/>
<path opacity="0.3" fill-rule="evenodd" clip-rule="evenodd" d="M57.0002 70.9018C88.4805 70.9018 114 59.6165 114 45.6952V46.0103C114 59.9316 88.4805 71.2169 57.0002 71.2169C25.5199 71.2169 0 59.9316 0 46.0103L0 45.6952C0 59.6165 25.5199 70.9018 57.0002 70.9018ZM0.0393904 44.75C0.0131402 45.0648 4.78978e-06 45.38 0 45.6952L0 44.75H0.0393904ZM113.961 44.75H114V45.6952C114 45.38 113.987 45.0648 113.961 44.75Z" fill="#232730"/>
<path fill-rule="evenodd" clip-rule="evenodd" d="M57.0002 60.8159C88.4805 60.8159 114 49.5306 114 35.6093V35.9244C114 49.8457 88.4805 61.131 57.0002 61.131C25.5199 61.131 0 49.8457 0 35.9244L0 35.6093C0 49.5306 25.5199 60.8159 57.0002 60.8159ZM0.0393904 34.6641C0.0131409 34.9788 5.53309e-06 35.294 0 35.6093L0 34.6641H0.0393904ZM113.961 34.6641H114V35.6093C114 35.293 113.987 34.9779 113.961 34.6641Z" fill="white" fill-opacity="0.2"/>
<path opacity="0.28" fill-rule="evenodd" clip-rule="evenodd" d="M57.0002 60.8238C88.4805 60.8238 114 49.5385 114 35.6172V45.6998C114 59.6211 88.4805 70.9064 57.0002 70.9064C25.5199 70.9064 0 59.6211 0 45.6998L0 35.6172C0 49.5385 25.5199 60.8238 57.0002 60.8238Z" fill="url(#paint2_linear_2969_2420)"/>
<g filter="url(#filter2_i_2969_2420)">
<path d="M114 35.6128C114 49.5341 88.4805 60.8194 57.0002 60.8194C25.5199 60.8194 0 49.5341 0 35.6128C0 21.6915 25.5199 10.4063 57.0002 10.4063C88.4805 10.4063 114 21.6915 114 35.6128Z" fill="#383E4F"/>
</g>
<path fill-rule="evenodd" clip-rule="evenodd" d="M57.0002 50.4175C88.4805 50.4175 114 39.1322 114 25.2109V35.2936C114 49.2148 88.4805 60.5001 57.0002 60.5001C25.5199 60.5001 0 49.2148 0 35.2936L0 25.2109C0 39.1322 25.5199 50.4175 57.0002 50.4175Z" fill="#383E4F"/>
<path opacity="0.3" fill-rule="evenodd" clip-rule="evenodd" d="M57.0002 60.5034C88.4805 60.5034 114 49.2181 114 35.2968V35.6119C114 49.5332 88.4805 60.8185 57.0002 60.8185C25.5199 60.8185 0 49.5332 0 35.6119L0 35.2968C0 49.2181 25.5199 60.5034 57.0002 60.5034ZM0.0393904 34.3516C0.0131402 34.6663 4.78978e-06 34.9815 0 35.2968L0 34.3516H0.0393904ZM113.961 34.3516H114V35.2968C114 34.9815 113.987 34.6663 113.961 34.3516Z" fill="#232730"/>
<path fill-rule="evenodd" clip-rule="evenodd" d="M57.0002 50.4174C88.4805 50.4174 114 39.1321 114 25.2109V25.526C114 39.4472 88.4805 50.7325 57.0002 50.7325C25.5199 50.7325 0 39.4472 0 25.526L0 25.2109C0 39.1321 25.5199 50.4174 57.0002 50.4174ZM0.0393904 24.2656C0.0131409 24.5804 5.53309e-06 24.8956 0 25.2109L0 24.2656H0.0393904ZM113.961 24.2656H114V25.2109C114 24.8945 113.987 24.5794 113.961 24.2656Z" fill="white" fill-opacity="0.2"/>
<path opacity="0.28" fill-rule="evenodd" clip-rule="evenodd" d="M57.0002 50.4175C88.4805 50.4175 114 39.1322 114 25.2109V35.2936C114 49.2148 88.4805 60.5001 57.0002 60.5001C25.5199 60.5001 0 49.2148 0 35.2936L0 25.2109C0 39.1322 25.5199 50.4175 57.0002 50.4175Z" fill="url(#paint3_linear_2969_2420)"/>
<g filter="url(#filter3_i_2969_2420)">
<path d="M114 25.2066C114 39.1278 88.4805 50.4131 57.0002 50.4131C25.5199 50.4131 0 39.1278 0 25.2066C0 11.2853 25.5199 0 57.0002 0C88.4805 0 114 11.2853 114 25.2066Z" fill="#383E4F"/>
</g>
<defs>
<filter id="filter0_i_2969_2420" x="0" y="31.1875" width="114" height="50.4141" filterUnits="userSpaceOnUse" color-interpolation-filters="sRGB">
<feFlood flood-opacity="0" result="BackgroundImageFix"/>
<feBlend mode="normal" in="SourceGraphic" in2="BackgroundImageFix" result="shape"/>
<feColorMatrix in="SourceAlpha" type="matrix" values="0 0 0 0 0 0 0 0 0 0 0 0 0 0 0 0 0 0 127 0" result="hardAlpha"/>
<feOffset/>
<feGaussianBlur stdDeviation="28"/>
<feComposite in2="hardAlpha" operator="arithmetic" k2="-1" k3="1"/>
<feColorMatrix type="matrix" values="0 0 0 0 1 0 0 0 0 1 0 0 0 0 1 0 0 0 0.3 0"/>
<feBlend mode="normal" in2="shape" result="effect1_innerShadow_2969_2420"/>
</filter>
<filter id="filter1_i_2969_2420" x="0" y="20.7891" width="114" height="50.4141" filterUnits="userSpaceOnUse" color-interpolation-filters="sRGB">
<feFlood flood-opacity="0" result="BackgroundImageFix"/>
<feBlend mode="normal" in="SourceGraphic" in2="BackgroundImageFix" result="shape"/>
<feColorMatrix in="SourceAlpha" type="matrix" values="0 0 0 0 0 0 0 0 0 0 0 0 0 0 0 0 0 0 127 0" result="hardAlpha"/>
<feOffset/>
<feGaussianBlur stdDeviation="28"/>
<feComposite in2="hardAlpha" operator="arithmetic" k2="-1" k3="1"/>
<feColorMatrix type="matrix" values="0 0 0 0 1 0 0 0 0 1 0 0 0 0 1 0 0 0 0.3 0"/>
<feBlend mode="normal" in2="shape" result="effect1_innerShadow_2969_2420"/>
</filter>
<filter id="filter2_i_2969_2420" x="0" y="10.4062" width="114" height="50.4141" filterUnits="userSpaceOnUse" color-interpolation-filters="sRGB">
<feFlood flood-opacity="0" result="BackgroundImageFix"/>
<feBlend mode="normal" in="SourceGraphic" in2="BackgroundImageFix" result="shape"/>
<feColorMatrix in="SourceAlpha" type="matrix" values="0 0 0 0 0 0 0 0 0 0 0 0 0 0 0 0 0 0 127 0" result="hardAlpha"/>
<feOffset/>
<feGaussianBlur stdDeviation="28"/>
<feComposite in2="hardAlpha" operator="arithmetic" k2="-1" k3="1"/>
<feColorMatrix type="matrix" values="0 0 0 0 1 0 0 0 0 1 0 0 0 0 1 0 0 0 0.3 0"/>
<feBlend mode="normal" in2="shape" result="effect1_innerShadow_2969_2420"/>
</filter>
<filter id="filter3_i_2969_2420" x="0" y="0" width="114" height="50.4141" filterUnits="userSpaceOnUse" color-interpolation-filters="sRGB">
<feFlood flood-opacity="0" result="BackgroundImageFix"/>
<feBlend mode="normal" in="SourceGraphic" in2="BackgroundImageFix" result="shape"/>
<feColorMatrix in="SourceAlpha" type="matrix" values="0 0 0 0 0 0 0 0 0 0 0 0 0 0 0 0 0 0 127 0" result="hardAlpha"/>
<feOffset/>
<feGaussianBlur stdDeviation="28"/>
<feComposite in2="hardAlpha" operator="arithmetic" k2="-1" k3="1"/>
<feColorMatrix type="matrix" values="0 0 0 0 1 0 0 0 0 1 0 0 0 0 1 0 0 0 0.3 0"/>
<feBlend mode="normal" in2="shape" result="effect1_innerShadow_2969_2420"/>
</filter>
<linearGradient id="paint0_linear_2969_2420" x1="72.7707" y1="55.5194" x2="9.69374" y2="55.5194" gradientUnits="userSpaceOnUse">
<stop stop-color="white" stop-opacity="0"/>
<stop offset="0.589" stop-color="white"/>
<stop offset="1" stop-color="white" stop-opacity="0"/>
</linearGradient>
<linearGradient id="paint1_linear_2969_2420" x1="72.7707" y1="45.1131" x2="9.69374" y2="45.1131" gradientUnits="userSpaceOnUse">
<stop stop-color="white" stop-opacity="0"/>
<stop offset="0.589" stop-color="white"/>
<stop offset="1" stop-color="white" stop-opacity="0"/>
</linearGradient>
<linearGradient id="paint2_linear_2969_2420" x1="72.7707" y1="34.7381" x2="9.69374" y2="34.7381" gradientUnits="userSpaceOnUse">
<stop stop-color="white" stop-opacity="0"/>
<stop offset="0.589" stop-color="white"/>
<stop offset="1" stop-color="white" stop-opacity="0"/>
</linearGradient>
<linearGradient id="paint3_linear_2969_2420" x1="72.7707" y1="24.3319" x2="9.69374" y2="24.3319" gradientUnits="userSpaceOnUse">
<stop stop-color="white" stop-opacity="0"/>
<stop offset="0.589" stop-color="white"/>
<stop offset="1" stop-color="white" stop-opacity="0"/>
</linearGradient>
</defs>
</svg>
