<svg viewBox="0 0 238 49" fill="none" xmlns="http://www.w3.org/2000/svg" height="40"><path d="M117.24 9.878h6.163v24.095c0 8.338-6.007 11.79-13.857 11.79a27.688 27.688 0 0 1-9.108-1.59v-6.748a19.16 19.16 0 0 0 9.186 2.34c4.564 0 7.118-1.862 7.118-5.1v-.536a10.501 10.501 0 0 1-7.381 2.497c-7.382 0-12.424-5.051-12.424-13.272 0-8.22 5.1-13.652 12.58-13.652a11.614 11.614 0 0 1 7.801 2.653l-.078-2.477Zm-.225 13.525c0-4.564-2.545-7.382-6.582-7.382-4.193 0-6.475 3.082-6.475 7.333 0 4.252 2.331 7.43 6.475 7.43 4.145 0 6.582-2.808 6.582-7.381ZM126.211 3.715c0-2.33 1.648-3.715 3.978-3.715 2.331 0 3.989 1.385 3.989 3.715a3.992 3.992 0 0 1-3.984 3.791 3.987 3.987 0 0 1-3.983-3.79Zm.634 34.617V9.878h6.689v28.454h-6.689ZM156.518 9.878h6.163v24.096c0 8.337-5.997 11.789-13.857 11.789a27.624 27.624 0 0 1-9.127-1.59v-6.747a19.094 19.094 0 0 0 9.176 2.34c4.573 0 7.118-1.863 7.118-5.1v-.536a10.5 10.5 0 0 1-7.381 2.496c-7.382 0-12.423-5.051-12.423-13.272 0-8.22 5.099-13.651 12.588-13.651 2.818-.086 5.57.857 7.743 2.652V9.878Zm-.263 13.525c0-4.563-2.545-7.381-6.582-7.381-4.193 0-6.475 3.08-6.475 7.332s2.33 7.43 6.475 7.43c4.144 0 6.582-2.807 6.582-7.38ZM193.202 24.105c0 8.65-5.363 14.49-12.793 14.49a12.286 12.286 0 0 1-7.538-2.33V45.5h-6.689V9.878h6.211v2.799a11.126 11.126 0 0 1 8.006-3.013c7.44 0 12.803 5.782 12.803 14.441Zm-6.952 0c0-4.992-2.76-8.074-6.826-8.074s-6.826 2.925-6.826 8.123c0 5.197 2.925 8.074 6.826 8.074 3.9 0 6.826-3.13 6.826-8.123ZM209.867 9.82v7.274a7.196 7.196 0 0 0-3.286-.848c-2.233 0-3.988 1.17-3.988 4.037v18.05h-6.69V9.877h6.212v2.33a6.829 6.829 0 0 1 5.685-2.603c.694.004 1.387.076 2.067.214ZM209.653 24.105c0-8.6 5.734-14.5 14.227-14.5s14.12 5.9 14.12 14.5-5.734 14.49-14.12 14.49-14.227-5.84-14.227-14.49Zm21.394 0c0-4.778-2.925-8.015-7.167-8.015s-7.216 3.237-7.216 8.015c0 4.778 2.925 8.016 7.216 8.016s7.167-3.296 7.167-8.016Z" fill="#000000"></path><path d="M41.462 11.702A22.262 22.262 0 1 0 9.86 41.443l-2.663 7.236 12.092-2.419v-4.749a3.462 3.462 0 0 0-2.428-3.305 3.451 3.451 0 0 1-2.808-3.394c0-.195 1.891-22.428 1.891-22.428a.976.976 0 0 1 1.95 0l.283 16.577a.497.497 0 0 0 .976 0l.292-17.552a.975.975 0 0 1 1.95 0l.293 17.552a.486.486 0 0 0 .497.488.487.487 0 0 0 .488-.488l.292-17.552a.975.975 0 1 1 1.95 0l.293 17.552a.497.497 0 0 0 .975 0l.293-16.577a.976.976 0 0 1 1.95 0s1.882 22.184 1.882 22.428a3.452 3.452 0 0 1-2.643 3.355 3.55 3.55 0 0 0-2.594 3.344v3.57s10.727-.976 16.236-10.854a22.292 22.292 0 0 1 0-22.516l.157-.01Z" fill="#F85E10"></path><path d="M82.886 22.974a22.262 22.262 0 0 0-41.433-11.273 22.292 22.292 0 0 1 0 22.516A22.517 22.517 0 0 0 57.679 45.08v-3.569a3.462 3.462 0 0 0-1.482-2.847c-4.037-2.301-6.875-7.635-6.875-13.847 0-8.328 5.07-15.066 11.331-15.066 6.26 0 11.34 6.738 11.34 15.066 0 6.124-2.759 11.4-6.718 13.76a3.443 3.443 0 0 0-1.638 2.876v4.807l12.072 2.419-2.652-7.226a22.232 22.232 0 0 0 9.829-18.479Z" fill="#F85E10"></path></svg>
