<svg id="outline_logo_svg__hotplate-logo" data-name="hotplate-logo" xmlns="http://www.w3.org/2000/svg" viewBox="0 0 209.57 52.67" height="100%"><defs><style>.outline_logo_svg__cls-1{fill:#333}.outline_logo_svg__cls-2{fill:#fff}</style></defs><path class="outline_logo_svg__cls-1" d="M72.81 10.94h4v8.42a6.52 6.52 0 0 1 5.72-2.92c4.68 0 6.41 3.06 6.41 8v10.18h-4V24.9c0-2.91-.79-4.6-3.74-4.6-2.77 0-4.39 2.19-4.39 5v9.36h-4ZM92.11 25.73a9.47 9.47 0 1 1 9.47 9.27 9.33 9.33 0 0 1-9.47-9.27Zm14.87 0a5.4 5.4 0 1 0-10.8 0 5.4 5.4 0 0 0 10.8 0ZM115.58 28.9v-8.82H113V16.8h2.63v-3.49l4-.83v4.32h5.36v3.28h-5.36V29c0 1.9.9 2.52 1.9 2.52a5 5 0 0 0 2.6-.87l1.18 3A7.64 7.64 0 0 1 121 35c-3.66 0-5.42-2-5.42-6.1ZM128 16.8h3.82V19a8 8 0 0 1 6.12-2.6c4.89 0 8.24 4.14 8.24 9.25S142.79 35 137.9 35a7.66 7.66 0 0 1-5.9-2.65v7.42h-4Zm14.12 8.89a5.1 5.1 0 0 0-5.19-5.39c-2.81 0-4.93 2.23-4.93 5.39s2.09 5.44 4.93 5.44a5.14 5.14 0 0 0 5.15-5.44ZM149.56 10.94h4v23.68h-4ZM157 25.73c0-5.15 3.35-9.29 8.24-9.29a7.69 7.69 0 0 1 5.94 2.63V16.8h4v17.82h-4v-2.23a7.62 7.62 0 0 1-5.96 2.61c-4.89 0-8.22-4.16-8.22-9.27Zm14.18 0c0-3.13-2.09-5.43-4.93-5.43a5.13 5.13 0 0 0-5.18 5.43 5.11 5.11 0 0 0 5.18 5.4c2.75 0 4.91-2.23 4.91-5.4ZM180.31 28.9v-8.82h-2.63V16.8h2.63v-3.49l4-.83v4.32h5.37v3.28h-5.38V29c0 1.9.9 2.52 1.91 2.52a5 5 0 0 0 2.59-.87l1.19 3a7.7 7.7 0 0 1-4.28 1.35c-3.64 0-5.4-2-5.4-6.1ZM191.83 25.73a9.17 9.17 0 0 1 9.17-9.29c4.75 0 8.56 4.14 8.56 9.15a14.19 14.19 0 0 1-.1 1.54H196a5.32 5.32 0 0 0 5.54 4.32 9.14 9.14 0 0 0 5.11-1.54l1.59 2.95a12.14 12.14 0 0 1-6.8 2.14c-5.08 0-9.61-3.4-9.61-9.27Zm13.86-1.55a4.89 4.89 0 0 0-4.9-4.24 5.08 5.08 0 0 0-4.86 4.24Z" transform="translate(0 .01)"></path><path class="outline_logo_svg__cls-2" d="M9.43 16.1a42.92 42.92 0 0 1 11.78-6.56c9.13-3.5 17.59-4 19.73-1.23 1.63-1.84 2.35-3.55 1.85-4.87-.62-1.6-3.11-2.5-6.88-2.5L35 1a50.62 50.62 0 0 0-15.7 3.56C8 8.89-.33 15.71 1.1 19.44c.5 1.32 2.19 2.1 4.63 2.38-.12-1.59 1.16-3.59 3.7-5.72ZM20.53 28.76a16.67 16.67 0 0 1-2.17-2.1c-.79.15-1.56.27-2.32.37-6.14 2-10 5.61-10 9.42a6.79 6.79 0 0 0 1.1 3.75A5.8 5.8 0 0 1 7 38.71c0-4.53 5.36-8.42 13.53-9.95Z" transform="translate(0 .01)"></path><path class="outline_logo_svg__cls-2" d="M40.73 8.55c-.83-1.16-2.84-1.73-5.58-1.73a41.08 41.08 0 0 0-13.82 3 42.34 42.34 0 0 0-11.7 6.52c-2.5 2.09-3.74 4-3.58 5.51 4.49.42 11.4-.79 18.54-3.53s13.08-6.46 16.14-9.77ZM40.31 16.06c-2.63 2.82-7.46 5.84-13.47 8.15-1.52.58-3 1.08-4.53 1.5 2.81 3.1 8 5.5 14 6.45A27.87 27.87 0 0 0 49 31.47a13.3 13.3 0 0 0 3.21-1.53A5.19 5.19 0 0 0 54 26.88c.72-4.37-5.3-9.1-13.69-10.82Z" transform="translate(0 .01)"></path><path class="outline_logo_svg__cls-2" d="M41.36 14.77a12 12 0 0 1-.82 1C49 17.59 55 22.43 54.33 26.93a4.93 4.93 0 0 1-.68 1.81A5.33 5.33 0 0 0 55.06 26c.71-4.47-5.18-9.29-13.7-11.23Z" transform="translate(0 .01)"></path><path class="outline_logo_svg__cls-2" d="M42.49 13c-.25.42-.51.85-.82 1.28a1.22 1.22 0 0 1-.12.19c8.62 2 14.55 7 13.82 11.56a6.26 6.26 0 0 1-3 4.17 14.05 14.05 0 0 1-3.23 1.53 24.65 24.65 0 0 1-7.65 1.12 34 34 0 0 1-5.24-.42C30.12 31.5 24.8 29 22 25.81c-.86.24-1.7.45-2.53.63C22.83 30.13 29 33 36 34.08c11.44 1.81 21.53-1.57 22.47-7.55.83-5.32-6.03-11.12-15.98-13.53ZM47.82 35a6.72 6.72 0 0 1 1.73 4.45 5.86 5.86 0 0 1-.3 1.66 6.77 6.77 0 0 0 1.41-3.88 6.31 6.31 0 0 0-.59-2.73c-.72.19-1.47.36-2.25.5Z" transform="translate(0 .01)"></path><path class="outline_logo_svg__cls-2" d="M42 35.51a39.86 39.86 0 0 1-6.17-.51 33.16 33.16 0 0 1-15-6h-.18c-7.92 1.51-13.31 5.4-13.39 9.71A5.72 5.72 0 0 0 7.74 41c3.35 4.19 11.21 7.22 20.4 7.38a34.59 34.59 0 0 0 16-3.2 15.24 15.24 0 0 0 4.49-3.29 5.78 5.78 0 0 0 .66-2.49 6.53 6.53 0 0 0-1.77-4.38 33.07 33.07 0 0 1-5.52.49Z" transform="translate(0 .01)"></path><path d="M43 12.17c2.45-4.92.91-8.64.73-9C42.84.94 39.76-.15 35 0a51.94 51.94 0 0 0-16 3.67C6.78 8.35-1.46 15.43.22 19.78c.15.46 1.85 5.27 8.81 6.92a12.52 12.52 0 0 0 3.82.51C8 29.5 5.13 32.8 5.07 36.43a14.46 14.46 0 0 0 8.29 12.63 31.27 31.27 0 0 0 14.7 3.58h.7c5.73 0 10.89-1.23 14.48-3.24a14.56 14.56 0 0 0 8.32-11.49s0-.11 0-.16v-.53a7.26 7.26 0 0 0-.63-3c4.66-1.47 7.86-4.13 8.41-7.55.98-5.86-5.92-11.92-16.34-14.5ZM1.1 19.44C-.33 15.71 8 8.89 19.3 4.56A50.62 50.62 0 0 1 35 1h.89c3.77 0 6.26.9 6.88 2.5.5 1.32-.22 3-1.85 4.87C38.8 5.57 30.34 6 21.21 9.54A42.92 42.92 0 0 0 9.43 16.1c-2.54 2.13-3.82 4.13-3.7 5.72-2.44-.28-4.13-1.06-4.63-2.38Zm53.23 7.49c.67-4.5-5.33-9.34-13.79-11.12a12 12 0 0 0 .82-1c8.52 1.94 14.41 6.76 13.7 11.23a5.33 5.33 0 0 1-1.41 2.74 4.93 4.93 0 0 0 .68-1.85Zm-2.1 3A13.3 13.3 0 0 1 49 31.47a27.87 27.87 0 0 1-12.74.69c-6-.95-11.16-3.35-14-6.45 1.49-.42 3-.92 4.53-1.5 6-2.31 10.84-5.33 13.47-8.15C48.7 17.78 54.72 22.51 54 26.88a5.19 5.19 0 0 1-1.77 3.06ZM6.05 21.86c-.16-1.49 1.08-3.42 3.58-5.51a42.34 42.34 0 0 1 11.7-6.52 41.08 41.08 0 0 1 13.82-3c2.74 0 4.75.57 5.58 1.73-3.06 3.31-9 7-16.14 9.78s-14.05 3.94-18.54 3.52ZM6 36.45c.08-3.81 3.9-7.38 10-9.45.76-.1 1.53-.22 2.32-.37a16.67 16.67 0 0 0 2.17 2.1C12.36 30.29 7 34.18 7 38.71a5.8 5.8 0 0 0 .19 1.49A6.79 6.79 0 0 1 6 36.45Zm1.41 5.64a.2.2 0 0 1 0-.08v.05Zm41.16-.16a15.24 15.24 0 0 1-4.49 3.29 34.59 34.59 0 0 1-16 3.2c-9.19-.16-17-3.19-20.4-7.38a5.72 5.72 0 0 1-.48-2.33c.08-4.31 5.47-8.2 13.42-9.66h.18a33.16 33.16 0 0 0 15 6 39.86 39.86 0 0 0 6.15.49 33.07 33.07 0 0 0 5.49-.45 6.53 6.53 0 0 1 1.77 4.38 5.78 5.78 0 0 1-.63 2.46Zm.67-.82a5.86 5.86 0 0 0 .3-1.66A6.72 6.72 0 0 0 47.82 35c.78-.14 1.53-.31 2.25-.5a6.31 6.31 0 0 1 .59 2.73 6.77 6.77 0 0 1-1.41 3.88Zm9.2-14.58c-.94 6-11 9.36-22.47 7.55C29 33 22.83 30.13 19.44 26.44c.83-.18 1.67-.39 2.53-.63 2.83 3.2 8.15 5.69 14.26 6.66a34 34 0 0 0 5.24.42 24.65 24.65 0 0 0 7.65-1.12 14.05 14.05 0 0 0 3.23-1.53 6.26 6.26 0 0 0 3-4.17c.73-4.61-5.2-9.56-13.82-11.56a1.22 1.22 0 0 0 .12-.19c.31-.43.57-.86.82-1.28 9.97 2.37 16.83 8.17 15.98 13.49Z" transform="translate(0 .01)" style="fill: rgb(230, 92, 92);"></path></svg>