<svg width="691" height="243" viewBox="0 0 691 243" fill="none" xmlns="http://www.w3.org/2000/svg">
<path d="M32 216.742H684" stroke="#CCCCCC"/>
<path d="M32 164.492H684" stroke="#CCCCCC"/>
<path d="M32 112.242H684" stroke="#CCCCCC"/>
<path d="M32 59.9922H684" stroke="#CCCCCC"/>
<path d="M32 7.74219H684" stroke="#CCCCCC"/>
<path d="M29.2903 230.538H30.3471V236.777C30.3471 237.334 30.2449 237.807 30.0403 238.196C29.8358 238.585 29.5474 238.881 29.1752 239.082C28.8031 239.284 28.3642 239.385 27.8585 239.385C27.3812 239.385 26.9565 239.298 26.5843 239.125C26.2122 238.949 25.9196 238.699 25.7065 238.375C25.4934 238.051 25.3869 237.666 25.3869 237.22H26.4267C26.4267 237.467 26.4877 237.683 26.6099 237.868C26.7349 238.05 26.9054 238.192 27.1213 238.294C27.3372 238.396 27.5829 238.447 27.8585 238.447C28.1625 238.447 28.421 238.384 28.6341 238.256C28.8471 238.128 29.0091 237.94 29.1199 237.693C29.2335 237.443 29.2903 237.138 29.2903 236.777V230.538ZM34.2548 239.419C33.84 239.419 33.4636 239.341 33.1255 239.185C32.7875 239.026 32.519 238.797 32.3201 238.499C32.1213 238.197 32.0218 237.834 32.0218 237.408C32.0218 237.033 32.0957 236.729 32.2434 236.496C32.3912 236.26 32.5886 236.075 32.8358 235.942C33.0829 235.808 33.3556 235.709 33.6539 235.643C33.9551 235.575 34.2576 235.521 34.5616 235.482C34.9593 235.43 35.2818 235.392 35.5289 235.366C35.7789 235.338 35.9608 235.291 36.0744 235.226C36.1909 235.161 36.2491 235.047 36.2491 234.885V234.851C36.2491 234.43 36.1341 234.104 35.9039 233.871C35.6767 233.638 35.3315 233.521 34.8684 233.521C34.3883 233.521 34.0119 233.626 33.7392 233.837C33.4664 234.047 33.2747 234.271 33.1639 234.51L32.2093 234.169C32.3798 233.771 32.6071 233.462 32.8912 233.24C33.1781 233.016 33.4906 232.859 33.8287 232.771C34.1696 232.68 34.5048 232.635 34.8343 232.635C35.0446 232.635 35.286 232.661 35.5588 232.712C35.8343 232.76 36.1 232.861 36.3556 233.014C36.6142 233.168 36.8287 233.399 36.9991 233.709C37.1696 234.018 37.2548 234.433 37.2548 234.953V239.266H36.2491V238.379H36.198C36.1298 238.521 36.0162 238.673 35.8571 238.835C35.698 238.997 35.4863 239.135 35.2221 239.249C34.9579 239.362 34.6355 239.419 34.2548 239.419ZM34.4082 238.516C34.8059 238.516 35.1412 238.438 35.4139 238.281C35.6895 238.125 35.8968 237.923 36.036 237.676C36.1781 237.429 36.2491 237.169 36.2491 236.896V235.976C36.2065 236.027 36.1127 236.074 35.9679 236.116C35.8258 236.156 35.661 236.192 35.4735 236.223C35.2889 236.251 35.1085 236.277 34.9324 236.3C34.7591 236.32 34.6184 236.337 34.5105 236.351C34.2491 236.385 34.0048 236.44 33.7775 236.517C33.5531 236.591 33.3713 236.703 33.2321 236.854C33.0957 237.001 33.0275 237.203 33.0275 237.459C33.0275 237.808 33.1568 238.072 33.4153 238.251C33.6767 238.428 34.0076 238.516 34.4082 238.516ZM40.0961 235.328V239.266H39.0904V232.72H40.062V233.743H40.1472C40.3006 233.411 40.5336 233.143 40.8461 232.942C41.1586 232.737 41.562 232.635 42.0563 232.635C42.4995 232.635 42.8873 232.726 43.2196 232.908C43.552 233.087 43.8105 233.359 43.9952 233.726C44.1799 234.089 44.2722 234.55 44.2722 235.107V239.266H43.2665V235.175C43.2665 234.661 43.133 234.26 42.8659 233.973C42.5989 233.683 42.2324 233.538 41.7665 233.538C41.4455 233.538 41.1586 233.608 40.9057 233.747C40.6557 233.886 40.4583 234.089 40.3134 234.357C40.1685 234.624 40.0961 234.947 40.0961 235.328ZM49.4679 239.266V238.499L52.3485 235.345C52.6866 234.976 52.965 234.655 53.1838 234.382C53.4025 234.107 53.5645 233.848 53.6696 233.607C53.7775 233.362 53.8315 233.107 53.8315 232.839C53.8315 232.533 53.7576 232.267 53.6099 232.043C53.465 231.818 53.2662 231.645 53.0133 231.523C52.7605 231.401 52.4764 231.339 52.161 231.339C51.8258 231.339 51.5332 231.409 51.2832 231.548C51.036 231.685 50.8443 231.876 50.7079 232.124C50.5744 232.371 50.5076 232.661 50.5076 232.993H49.502C49.502 232.482 49.6199 232.033 49.8556 231.646C50.0914 231.26 50.4125 230.959 50.8187 230.743C51.2278 230.527 51.6866 230.419 52.1951 230.419C52.7065 230.419 53.1596 230.527 53.5545 230.743C53.9494 230.959 54.2591 231.25 54.4835 231.616C54.7079 231.983 54.8201 232.391 54.8201 232.839C54.8201 233.161 54.7619 233.474 54.6454 233.781C54.5318 234.085 54.3329 234.425 54.0488 234.8C53.7676 235.172 53.377 235.626 52.877 236.163L50.9167 238.26V238.328H54.9735V239.266H49.4679ZM59.5801 239.385C58.938 239.385 58.3912 239.21 57.9395 238.861C57.4877 238.509 57.1426 237.999 56.9039 237.331C56.6653 236.661 56.546 235.851 56.546 234.902C56.546 233.959 56.6653 233.153 56.9039 232.486C57.1454 231.815 57.492 231.304 57.9437 230.952C58.3983 230.597 58.9437 230.419 59.5801 230.419C60.2164 230.419 60.7605 230.597 61.2122 230.952C61.6667 231.304 62.0133 231.815 62.252 232.486C62.4934 233.153 62.6142 233.959 62.6142 234.902C62.6142 235.851 62.4949 236.661 62.2562 237.331C62.0176 237.999 61.6724 238.509 61.2207 238.861C60.769 239.21 60.2221 239.385 59.5801 239.385ZM59.5801 238.447C60.2164 238.447 60.7108 238.141 61.063 237.527C61.4153 236.913 61.5914 236.038 61.5914 234.902C61.5914 234.146 61.5105 233.503 61.3485 232.972C61.1895 232.44 60.9593 232.036 60.6582 231.757C60.3599 231.479 60.0005 231.339 59.5801 231.339C58.9494 231.339 58.4565 231.651 58.1014 232.273C57.7463 232.892 57.5687 233.768 57.5687 234.902C57.5687 235.658 57.6483 236.3 57.8074 236.828C57.9664 237.357 58.1951 237.759 58.4934 238.034C58.7946 238.31 59.1568 238.447 59.5801 238.447ZM64.2335 239.266V238.499L67.1142 235.345C67.4522 234.976 67.7306 234.655 67.9494 234.382C68.1681 234.107 68.3301 233.848 68.4352 233.607C68.5431 233.362 68.5971 233.107 68.5971 232.839C68.5971 232.533 68.5233 232.267 68.3755 232.043C68.2306 231.818 68.0318 231.645 67.7789 231.523C67.5261 231.401 67.242 231.339 66.9267 231.339C66.5914 231.339 66.2988 231.409 66.0488 231.548C65.8017 231.685 65.6099 231.876 65.4735 232.124C65.34 232.371 65.2733 232.661 65.2733 232.993H64.2676C64.2676 232.482 64.3855 232.033 64.6213 231.646C64.8571 231.26 65.1781 230.959 65.5843 230.743C65.9934 230.527 66.4522 230.419 66.9608 230.419C67.4721 230.419 67.9252 230.527 68.3201 230.743C68.715 230.959 69.0247 231.25 69.2491 231.616C69.4735 231.983 69.5858 232.391 69.5858 232.839C69.5858 233.161 69.5275 233.474 69.411 233.781C69.2974 234.085 69.0985 234.425 68.8145 234.8C68.5332 235.172 68.1426 235.626 67.6426 236.163L65.6824 238.26V238.328H69.7392V239.266H64.2335ZM71.1071 237.476V236.607L74.9423 230.538H75.573V231.885H75.1468L72.2491 236.47V236.538H77.4139V237.476H71.1071ZM75.215 239.266V237.212V236.807V230.538H76.2207V239.266H75.215Z" fill="#6C727F"/>
<path d="M148.496 239.266V230.538H153.729V231.476H149.553V234.425H153.337V235.362H149.553V239.266H148.496ZM157.667 239.402C157.036 239.402 156.492 239.263 156.035 238.984C155.58 238.703 155.229 238.311 154.982 237.808C154.738 237.303 154.616 236.714 154.616 236.044C154.616 235.374 154.738 234.783 154.982 234.271C155.229 233.757 155.573 233.357 156.013 233.07C156.456 232.78 156.974 232.635 157.564 232.635C157.905 232.635 158.242 232.692 158.574 232.805C158.907 232.919 159.209 233.104 159.482 233.359C159.755 233.612 159.972 233.947 160.134 234.365C160.296 234.783 160.377 235.297 160.377 235.908V236.334H155.331V235.464H159.354C159.354 235.095 159.28 234.766 159.133 234.476C158.988 234.186 158.78 233.957 158.51 233.79C158.243 233.622 157.928 233.538 157.564 233.538C157.164 233.538 156.817 233.638 156.525 233.837C156.235 234.033 156.012 234.288 155.856 234.604C155.699 234.919 155.621 235.257 155.621 235.618V236.197C155.621 236.692 155.706 237.111 155.877 237.455C156.05 237.795 156.29 238.055 156.597 238.234C156.904 238.411 157.26 238.499 157.667 238.499C157.931 238.499 158.17 238.462 158.383 238.388C158.599 238.311 158.785 238.197 158.941 238.047C159.097 237.893 159.218 237.703 159.303 237.476L160.275 237.749C160.172 238.078 160.001 238.368 159.759 238.618C159.518 238.865 159.219 239.058 158.864 239.197C158.509 239.334 158.11 239.402 157.667 239.402ZM162.043 239.266V230.538H163.049V233.76H163.134C163.208 233.646 163.31 233.501 163.441 233.325C163.574 233.146 163.765 232.987 164.012 232.848C164.262 232.706 164.6 232.635 165.026 232.635C165.577 232.635 166.063 232.773 166.483 233.048C166.904 233.324 167.232 233.714 167.468 234.22C167.704 234.726 167.822 235.322 167.822 236.01C167.822 236.703 167.704 237.304 167.468 237.812C167.232 238.318 166.905 238.71 166.488 238.989C166.07 239.264 165.589 239.402 165.043 239.402C164.623 239.402 164.286 239.332 164.033 239.193C163.78 239.051 163.586 238.891 163.449 238.712C163.313 238.53 163.208 238.379 163.134 238.26H163.015V239.266H162.043ZM163.032 235.993C163.032 236.487 163.104 236.923 163.249 237.301C163.394 237.676 163.606 237.97 163.884 238.183C164.162 238.393 164.503 238.499 164.907 238.499C165.327 238.499 165.678 238.388 165.959 238.166C166.243 237.942 166.456 237.641 166.599 237.263C166.743 236.882 166.816 236.459 166.816 235.993C166.816 235.533 166.745 235.118 166.603 234.749C166.464 234.376 166.252 234.082 165.968 233.866C165.687 233.648 165.333 233.538 164.907 233.538C164.498 233.538 164.154 233.642 163.876 233.849C163.597 234.054 163.387 234.341 163.245 234.71C163.103 235.077 163.032 235.504 163.032 235.993ZM172.718 239.266V238.499L175.599 235.345C175.937 234.976 176.215 234.655 176.434 234.382C176.653 234.107 176.814 233.848 176.92 233.607C177.028 233.362 177.081 233.107 177.081 232.839C177.081 232.533 177.008 232.267 176.86 232.043C176.715 231.818 176.516 231.645 176.263 231.523C176.01 231.401 175.726 231.339 175.411 231.339C175.076 231.339 174.783 231.409 174.533 231.548C174.286 231.685 174.094 231.876 173.958 232.124C173.824 232.371 173.758 232.661 173.758 232.993H172.752C172.752 232.482 172.87 232.033 173.106 231.646C173.341 231.26 173.662 230.959 174.069 230.743C174.478 230.527 174.937 230.419 175.445 230.419C175.956 230.419 176.41 230.527 176.805 230.743C177.199 230.959 177.509 231.25 177.733 231.616C177.958 231.983 178.07 232.391 178.07 232.839C178.07 233.161 178.012 233.474 177.895 233.781C177.782 234.085 177.583 234.425 177.299 234.8C177.018 235.172 176.627 235.626 176.127 236.163L174.167 238.26V238.328H178.224V239.266H172.718ZM182.83 239.385C182.188 239.385 181.641 239.21 181.189 238.861C180.738 238.509 180.393 237.999 180.154 237.331C179.915 236.661 179.796 235.851 179.796 234.902C179.796 233.959 179.915 233.153 180.154 232.486C180.395 231.815 180.742 231.304 181.194 230.952C181.648 230.597 182.194 230.419 182.83 230.419C183.466 230.419 184.01 230.597 184.462 230.952C184.917 231.304 185.263 231.815 185.502 232.486C185.743 233.153 185.864 233.959 185.864 234.902C185.864 235.851 185.745 236.661 185.506 237.331C185.268 237.999 184.922 238.509 184.471 238.861C184.019 239.21 183.472 239.385 182.83 239.385ZM182.83 238.447C183.466 238.447 183.961 238.141 184.313 237.527C184.665 236.913 184.841 236.038 184.841 234.902C184.841 234.146 184.76 233.503 184.599 232.972C184.439 232.44 184.209 232.036 183.908 231.757C183.61 231.479 183.251 231.339 182.83 231.339C182.199 231.339 181.706 231.651 181.351 232.273C180.996 232.892 180.819 233.768 180.819 234.902C180.819 235.658 180.898 236.3 181.057 236.828C181.216 237.357 181.445 237.759 181.743 238.034C182.045 238.31 182.407 238.447 182.83 238.447ZM187.483 239.266V238.499L190.364 235.345C190.702 234.976 190.981 234.655 191.199 234.382C191.418 234.107 191.58 233.848 191.685 233.607C191.793 233.362 191.847 233.107 191.847 232.839C191.847 232.533 191.773 232.267 191.626 232.043C191.481 231.818 191.282 231.645 191.029 231.523C190.776 231.401 190.492 231.339 190.177 231.339C189.841 231.339 189.549 231.409 189.299 231.548C189.052 231.685 188.86 231.876 188.724 232.124C188.59 232.371 188.523 232.661 188.523 232.993H187.518C187.518 232.482 187.635 232.033 187.871 231.646C188.107 231.26 188.428 230.959 188.834 230.743C189.243 230.527 189.702 230.419 190.211 230.419C190.722 230.419 191.175 230.527 191.57 230.743C191.965 230.959 192.275 231.25 192.499 231.616C192.724 231.983 192.836 232.391 192.836 232.839C192.836 233.161 192.778 233.474 192.661 233.781C192.547 234.085 192.349 234.425 192.064 234.8C191.783 235.172 191.393 235.626 190.893 236.163L188.932 238.26V238.328H192.989V239.266H187.483ZM194.357 237.476V236.607L198.192 230.538H198.823V231.885H198.397L195.499 236.47V236.538H200.664V237.476H194.357ZM198.465 239.266V237.212V236.807V230.538H199.471V239.266H198.465Z" fill="#6C727F"/>
<path d="M270.444 230.538H271.705L274.671 237.783H274.773L277.739 230.538H279V239.266H278.012V232.635H277.926L275.199 239.266H274.245L271.517 232.635H271.432V239.266H270.444V230.538ZM282.909 239.419C282.494 239.419 282.118 239.341 281.78 239.185C281.442 239.026 281.173 238.797 280.974 238.499C280.776 238.197 280.676 237.834 280.676 237.408C280.676 237.033 280.75 236.729 280.898 236.496C281.045 236.26 281.243 236.075 281.49 235.942C281.737 235.808 282.01 235.709 282.308 235.643C282.609 235.575 282.912 235.521 283.216 235.482C283.614 235.43 283.936 235.392 284.183 235.366C284.433 235.338 284.615 235.291 284.729 235.226C284.845 235.161 284.903 235.047 284.903 234.885V234.851C284.903 234.43 284.788 234.104 284.558 233.871C284.331 233.638 283.986 233.521 283.523 233.521C283.043 233.521 282.666 233.626 282.393 233.837C282.121 234.047 281.929 234.271 281.818 234.51L280.864 234.169C281.034 233.771 281.261 233.462 281.545 233.24C281.832 233.016 282.145 232.859 282.483 232.771C282.824 232.68 283.159 232.635 283.489 232.635C283.699 232.635 283.94 232.661 284.213 232.712C284.489 232.76 284.754 232.861 285.01 233.014C285.268 233.168 285.483 233.399 285.653 233.709C285.824 234.018 285.909 234.433 285.909 234.953V239.266H284.903V238.379H284.852C284.784 238.521 284.67 238.673 284.511 238.835C284.352 238.997 284.141 239.135 283.876 239.249C283.612 239.362 283.29 239.419 282.909 239.419ZM283.062 238.516C283.46 238.516 283.795 238.438 284.068 238.281C284.344 238.125 284.551 237.923 284.69 237.676C284.832 237.429 284.903 237.169 284.903 236.896V235.976C284.861 236.027 284.767 236.074 284.622 236.116C284.48 236.156 284.315 236.192 284.128 236.223C283.943 236.251 283.763 236.277 283.587 236.3C283.413 236.32 283.273 236.337 283.165 236.351C282.903 236.385 282.659 236.44 282.432 236.517C282.207 236.591 282.026 236.703 281.886 236.854C281.75 237.001 281.682 237.203 281.682 237.459C281.682 237.808 281.811 238.072 282.07 238.251C282.331 238.428 282.662 238.516 283.062 238.516ZM287.745 239.266V232.72H288.716V233.709H288.784C288.904 233.385 289.12 233.122 289.432 232.92C289.745 232.719 290.097 232.618 290.489 232.618C290.563 232.618 290.655 232.619 290.766 232.622C290.877 232.625 290.961 232.629 291.017 232.635V233.658C290.983 233.649 290.905 233.636 290.783 233.619C290.664 233.599 290.537 233.589 290.404 233.589C290.086 233.589 289.801 233.656 289.551 233.79C289.304 233.92 289.108 234.102 288.963 234.335C288.821 234.565 288.75 234.828 288.75 235.124V239.266H287.745ZM295.567 239.266V238.499L298.448 235.345C298.786 234.976 299.065 234.655 299.283 234.382C299.502 234.107 299.664 233.848 299.769 233.607C299.877 233.362 299.931 233.107 299.931 232.839C299.931 232.533 299.857 232.267 299.71 232.043C299.565 231.818 299.366 231.645 299.113 231.523C298.86 231.401 298.576 231.339 298.261 231.339C297.925 231.339 297.633 231.409 297.383 231.548C297.136 231.685 296.944 231.876 296.808 232.124C296.674 232.371 296.607 232.661 296.607 232.993H295.602C295.602 232.482 295.719 232.033 295.955 231.646C296.191 231.26 296.512 230.959 296.918 230.743C297.327 230.527 297.786 230.419 298.295 230.419C298.806 230.419 299.259 230.527 299.654 230.743C300.049 230.959 300.359 231.25 300.583 231.616C300.808 231.983 300.92 232.391 300.92 232.839C300.92 233.161 300.862 233.474 300.745 233.781C300.631 234.085 300.433 234.425 300.148 234.8C299.867 235.172 299.477 235.626 298.977 236.163L297.016 238.26V238.328H301.073V239.266H295.567ZM305.68 239.385C305.038 239.385 304.491 239.21 304.039 238.861C303.587 238.509 303.242 237.999 303.004 237.331C302.765 236.661 302.646 235.851 302.646 234.902C302.646 233.959 302.765 233.153 303.004 232.486C303.245 231.815 303.592 231.304 304.043 230.952C304.498 230.597 305.043 230.419 305.68 230.419C306.316 230.419 306.86 230.597 307.312 230.952C307.766 231.304 308.113 231.815 308.352 232.486C308.593 233.153 308.714 233.959 308.714 234.902C308.714 235.851 308.594 236.661 308.356 237.331C308.117 237.999 307.772 238.509 307.32 238.861C306.869 239.21 306.322 239.385 305.68 239.385ZM305.68 238.447C306.316 238.447 306.81 238.141 307.163 237.527C307.515 236.913 307.691 236.038 307.691 234.902C307.691 234.146 307.61 233.503 307.448 232.972C307.289 232.44 307.059 232.036 306.758 231.757C306.46 231.479 306.1 231.339 305.68 231.339C305.049 231.339 304.556 231.651 304.201 232.273C303.846 232.892 303.668 233.768 303.668 234.902C303.668 235.658 303.748 236.3 303.907 236.828C304.066 237.357 304.295 237.759 304.593 238.034C304.894 238.31 305.256 238.447 305.68 238.447ZM310.333 239.266V238.499L313.214 235.345C313.552 234.976 313.83 234.655 314.049 234.382C314.268 234.107 314.43 233.848 314.535 233.607C314.643 233.362 314.697 233.107 314.697 232.839C314.697 232.533 314.623 232.267 314.475 232.043C314.33 231.818 314.131 231.645 313.879 231.523C313.626 231.401 313.342 231.339 313.026 231.339C312.691 231.339 312.398 231.409 312.148 231.548C311.901 231.685 311.71 231.876 311.573 232.124C311.44 232.371 311.373 232.661 311.373 232.993H310.367C310.367 232.482 310.485 232.033 310.721 231.646C310.957 231.26 311.278 230.959 311.684 230.743C312.093 230.527 312.552 230.419 313.06 230.419C313.572 230.419 314.025 230.527 314.42 230.743C314.815 230.959 315.124 231.25 315.349 231.616C315.573 231.983 315.685 232.391 315.685 232.839C315.685 233.161 315.627 233.474 315.511 233.781C315.397 234.085 315.198 234.425 314.914 234.8C314.633 235.172 314.242 235.626 313.742 236.163L311.782 238.26V238.328H315.839V239.266H310.333ZM317.207 237.476V236.607L321.042 230.538H321.673V231.885H321.246L318.349 236.47V236.538H323.513V237.476H317.207ZM321.315 239.266V237.212V236.807V230.538H322.32V239.266H321.315Z" fill="#6C727F"/>
<path d="M394.339 239.266H393.231L396.435 230.538H397.526L400.731 239.266H399.623L397.015 231.919H396.947L394.339 239.266ZM394.748 235.857H399.214V236.794H394.748V235.857ZM401.954 241.72V232.72H402.925V233.76H403.045C403.118 233.646 403.221 233.501 403.351 233.325C403.485 233.146 403.675 232.987 403.922 232.848C404.172 232.706 404.51 232.635 404.937 232.635C405.488 232.635 405.974 232.773 406.394 233.048C406.814 233.324 407.143 233.714 407.378 234.22C407.614 234.726 407.732 235.322 407.732 236.01C407.732 236.703 407.614 237.304 407.378 237.812C407.143 238.318 406.816 238.71 406.398 238.989C405.981 239.264 405.499 239.402 404.954 239.402C404.533 239.402 404.197 239.332 403.944 239.193C403.691 239.051 403.496 238.891 403.36 238.712C403.224 238.53 403.118 238.379 403.045 238.26H402.959V241.72H401.954ZM402.942 235.993C402.942 236.487 403.015 236.923 403.16 237.301C403.305 237.676 403.516 237.97 403.795 238.183C404.073 238.393 404.414 238.499 404.817 238.499C405.238 238.499 405.589 238.388 405.87 238.166C406.154 237.942 406.367 237.641 406.509 237.263C406.654 236.882 406.726 236.459 406.726 235.993C406.726 235.533 406.655 235.118 406.513 234.749C406.374 234.376 406.162 234.082 405.878 233.866C405.597 233.648 405.243 233.538 404.817 233.538C404.408 233.538 404.064 233.642 403.786 233.849C403.508 234.054 403.297 234.341 403.155 234.71C403.013 235.077 402.942 235.504 402.942 235.993ZM409.266 239.266V232.72H410.238V233.709H410.306C410.425 233.385 410.641 233.122 410.954 232.92C411.266 232.719 411.618 232.618 412.01 232.618C412.084 232.618 412.177 232.619 412.287 232.622C412.398 232.625 412.482 232.629 412.539 232.635V233.658C412.505 233.649 412.427 233.636 412.305 233.619C412.185 233.599 412.059 233.589 411.925 233.589C411.607 233.589 411.323 233.656 411.073 233.79C410.826 233.92 410.63 234.102 410.485 234.335C410.343 234.565 410.272 234.828 410.272 235.124V239.266H409.266ZM417.089 239.266V238.499L419.97 235.345C420.308 234.976 420.586 234.655 420.805 234.382C421.024 234.107 421.186 233.848 421.291 233.607C421.399 233.362 421.453 233.107 421.453 232.839C421.453 232.533 421.379 232.267 421.231 232.043C421.086 231.818 420.887 231.645 420.634 231.523C420.382 231.401 420.097 231.339 419.782 231.339C419.447 231.339 419.154 231.409 418.904 231.548C418.657 231.685 418.465 231.876 418.329 232.124C418.195 232.371 418.129 232.661 418.129 232.993H417.123C417.123 232.482 417.241 232.033 417.477 231.646C417.713 231.26 418.034 230.959 418.44 230.743C418.849 230.527 419.308 230.419 419.816 230.419C420.328 230.419 420.781 230.527 421.176 230.743C421.57 230.959 421.88 231.25 422.105 231.616C422.329 231.983 422.441 232.391 422.441 232.839C422.441 233.161 422.383 233.474 422.267 233.781C422.153 234.085 421.954 234.425 421.67 234.8C421.389 235.172 420.998 235.626 420.498 236.163L418.538 238.26V238.328H422.595V239.266H417.089ZM427.201 239.385C426.559 239.385 426.012 239.21 425.561 238.861C425.109 238.509 424.764 237.999 424.525 237.331C424.286 236.661 424.167 235.851 424.167 234.902C424.167 233.959 424.286 233.153 424.525 232.486C424.767 231.815 425.113 231.304 425.565 230.952C426.019 230.597 426.565 230.419 427.201 230.419C427.838 230.419 428.382 230.597 428.833 230.952C429.288 231.304 429.634 231.815 429.873 232.486C430.115 233.153 430.235 233.959 430.235 234.902C430.235 235.851 430.116 236.661 429.877 237.331C429.639 237.999 429.294 238.509 428.842 238.861C428.39 239.21 427.843 239.385 427.201 239.385ZM427.201 238.447C427.838 238.447 428.332 238.141 428.684 237.527C429.036 236.913 429.213 236.038 429.213 234.902C429.213 234.146 429.132 233.503 428.97 232.972C428.811 232.44 428.58 232.036 428.279 231.757C427.981 231.479 427.622 231.339 427.201 231.339C426.57 231.339 426.078 231.651 425.722 232.273C425.367 232.892 425.19 233.768 425.19 234.902C425.19 235.658 425.269 236.3 425.428 236.828C425.588 237.357 425.816 237.759 426.115 238.034C426.416 238.31 426.778 238.447 427.201 238.447ZM431.855 239.266V238.499L434.735 235.345C435.073 234.976 435.352 234.655 435.57 234.382C435.789 234.107 435.951 233.848 436.056 233.607C436.164 233.362 436.218 233.107 436.218 232.839C436.218 232.533 436.144 232.267 435.997 232.043C435.852 231.818 435.653 231.645 435.4 231.523C435.147 231.401 434.863 231.339 434.548 231.339C434.213 231.339 433.92 231.409 433.67 231.548C433.423 231.685 433.231 231.876 433.095 232.124C432.961 232.371 432.894 232.661 432.894 232.993H431.889C431.889 232.482 432.007 232.033 432.242 231.646C432.478 231.26 432.799 230.959 433.205 230.743C433.615 230.527 434.073 230.419 434.582 230.419C435.093 230.419 435.546 230.527 435.941 230.743C436.336 230.959 436.646 231.25 436.87 231.616C437.095 231.983 437.207 232.391 437.207 232.839C437.207 233.161 437.149 233.474 437.032 233.781C436.919 234.085 436.72 234.425 436.436 234.8C436.154 235.172 435.764 235.626 435.264 236.163L433.303 238.26V238.328H437.36V239.266H431.855ZM439.12 239.266V238.499L442.001 235.345C442.339 234.976 442.617 234.655 442.836 234.382C443.055 234.107 443.217 233.848 443.322 233.607C443.43 233.362 443.484 233.107 443.484 232.839C443.484 232.533 443.41 232.267 443.262 232.043C443.117 231.818 442.919 231.645 442.666 231.523C442.413 231.401 442.129 231.339 441.813 231.339C441.478 231.339 441.186 231.409 440.936 231.548C440.688 231.685 440.497 231.876 440.36 232.124C440.227 232.371 440.16 232.661 440.16 232.993H439.154C439.154 232.482 439.272 232.033 439.508 231.646C439.744 231.26 440.065 230.959 440.471 230.743C440.88 230.527 441.339 230.419 441.847 230.419C442.359 230.419 442.812 230.527 443.207 230.743C443.602 230.959 443.911 231.25 444.136 231.616C444.36 231.983 444.472 232.391 444.472 232.839C444.472 233.161 444.414 233.474 444.298 233.781C444.184 234.085 443.985 234.425 443.701 234.8C443.42 235.172 443.029 235.626 442.529 236.163L440.569 238.26V238.328H444.626V239.266H439.12Z" fill="#6C727F"/>
<path d="M514.258 230.538H515.519L518.485 237.783H518.588L521.553 230.538H522.815V239.266H521.826V232.635H521.741L519.014 239.266H518.059L515.332 232.635H515.247V239.266H514.258V230.538ZM526.724 239.419C526.309 239.419 525.932 239.341 525.594 239.185C525.256 239.026 524.988 238.797 524.789 238.499C524.59 238.197 524.491 237.834 524.491 237.408C524.491 237.033 524.564 236.729 524.712 236.496C524.86 236.26 525.057 236.075 525.305 235.942C525.552 235.808 525.824 235.709 526.123 235.643C526.424 235.575 526.726 235.521 527.03 235.482C527.428 235.43 527.751 235.392 527.998 235.366C528.248 235.338 528.43 235.291 528.543 235.226C528.66 235.161 528.718 235.047 528.718 234.885V234.851C528.718 234.43 528.603 234.104 528.373 233.871C528.145 233.638 527.8 233.521 527.337 233.521C526.857 233.521 526.481 233.626 526.208 233.837C525.935 234.047 525.743 234.271 525.633 234.51L524.678 234.169C524.849 233.771 525.076 233.462 525.36 233.24C525.647 233.016 525.959 232.859 526.297 232.771C526.638 232.68 526.974 232.635 527.303 232.635C527.513 232.635 527.755 232.661 528.028 232.712C528.303 232.76 528.569 232.861 528.824 233.014C529.083 233.168 529.297 233.399 529.468 233.709C529.638 234.018 529.724 234.433 529.724 234.953V239.266H528.718V238.379H528.667C528.599 238.521 528.485 238.673 528.326 238.835C528.167 238.997 527.955 239.135 527.691 239.249C527.427 239.362 527.104 239.419 526.724 239.419ZM526.877 238.516C527.275 238.516 527.61 238.438 527.883 238.281C528.158 238.125 528.366 237.923 528.505 237.676C528.647 237.429 528.718 237.169 528.718 236.896V235.976C528.675 236.027 528.581 236.074 528.437 236.116C528.295 236.156 528.13 236.192 527.942 236.223C527.758 236.251 527.577 236.277 527.401 236.3C527.228 236.32 527.087 236.337 526.979 236.351C526.718 236.385 526.474 236.44 526.246 236.517C526.022 236.591 525.84 236.703 525.701 236.854C525.564 237.001 525.496 237.203 525.496 237.459C525.496 237.808 525.626 238.072 525.884 238.251C526.145 238.428 526.476 238.516 526.877 238.516ZM531.972 241.72C531.802 241.72 531.65 241.706 531.517 241.678C531.383 241.652 531.291 241.626 531.24 241.601L531.495 240.714C531.74 240.777 531.955 240.8 532.143 240.783C532.33 240.766 532.497 240.682 532.642 240.531C532.789 240.384 532.924 240.143 533.046 239.811L533.234 239.3L530.813 232.72H531.904L533.711 237.936H533.779L535.586 232.72H536.677L533.899 240.22C533.774 240.558 533.619 240.838 533.434 241.06C533.249 241.284 533.035 241.45 532.791 241.558C532.549 241.666 532.276 241.72 531.972 241.72ZM541.362 239.266V238.499L544.243 235.345C544.581 234.976 544.86 234.655 545.078 234.382C545.297 234.107 545.459 233.848 545.564 233.607C545.672 233.362 545.726 233.107 545.726 232.839C545.726 232.533 545.652 232.267 545.504 232.043C545.36 231.818 545.161 231.645 544.908 231.523C544.655 231.401 544.371 231.339 544.056 231.339C543.72 231.339 543.428 231.409 543.178 231.548C542.931 231.685 542.739 231.876 542.602 232.124C542.469 232.371 542.402 232.661 542.402 232.993H541.396C541.396 232.482 541.514 232.033 541.75 231.646C541.986 231.26 542.307 230.959 542.713 230.743C543.122 230.527 543.581 230.419 544.09 230.419C544.601 230.419 545.054 230.527 545.449 230.743C545.844 230.959 546.154 231.25 546.378 231.616C546.602 231.983 546.715 232.391 546.715 232.839C546.715 233.161 546.656 233.474 546.54 233.781C546.426 234.085 546.227 234.425 545.943 234.8C545.662 235.172 545.271 235.626 544.771 236.163L542.811 238.26V238.328H546.868V239.266H541.362ZM551.475 239.385C550.833 239.385 550.286 239.21 549.834 238.861C549.382 238.509 549.037 237.999 548.798 237.331C548.56 236.661 548.441 235.851 548.441 234.902C548.441 233.959 548.56 233.153 548.798 232.486C549.04 231.815 549.387 231.304 549.838 230.952C550.293 230.597 550.838 230.419 551.475 230.419C552.111 230.419 552.655 230.597 553.107 230.952C553.561 231.304 553.908 231.815 554.146 232.486C554.388 233.153 554.509 233.959 554.509 234.902C554.509 235.851 554.389 236.661 554.151 237.331C553.912 237.999 553.567 238.509 553.115 238.861C552.664 239.21 552.117 239.385 551.475 239.385ZM551.475 238.447C552.111 238.447 552.605 238.141 552.958 237.527C553.31 236.913 553.486 236.038 553.486 234.902C553.486 234.146 553.405 233.503 553.243 232.972C553.084 232.44 552.854 232.036 552.553 231.757C552.254 231.479 551.895 231.339 551.475 231.339C550.844 231.339 550.351 231.651 549.996 232.273C549.641 232.892 549.463 233.768 549.463 234.902C549.463 235.658 549.543 236.3 549.702 236.828C549.861 237.357 550.09 237.759 550.388 238.034C550.689 238.31 551.051 238.447 551.475 238.447ZM556.128 239.266V238.499L559.009 235.345C559.347 234.976 559.625 234.655 559.844 234.382C560.063 234.107 560.225 233.848 560.33 233.607C560.438 233.362 560.492 233.107 560.492 232.839C560.492 232.533 560.418 232.267 560.27 232.043C560.125 231.818 559.926 231.645 559.673 231.523C559.421 231.401 559.137 231.339 558.821 231.339C558.486 231.339 558.193 231.409 557.943 231.548C557.696 231.685 557.504 231.876 557.368 232.124C557.235 232.371 557.168 232.661 557.168 232.993H556.162C556.162 232.482 556.28 232.033 556.516 231.646C556.752 231.26 557.073 230.959 557.479 230.743C557.888 230.527 558.347 230.419 558.855 230.419C559.367 230.419 559.82 230.527 560.215 230.743C560.61 230.959 560.919 231.25 561.144 231.616C561.368 231.983 561.48 232.391 561.48 232.839C561.48 233.161 561.422 233.474 561.306 233.781C561.192 234.085 560.993 234.425 560.709 234.8C560.428 235.172 560.037 235.626 559.537 236.163L557.577 238.26V238.328H561.634V239.266H556.128ZM563.002 237.476V236.607L566.837 230.538H567.468V231.885H567.041L564.144 236.47V236.538H569.308V237.476H563.002ZM567.11 239.266V237.212V236.807V230.538H568.115V239.266H567.11Z" fill="#6C727F"/>
<path d="M636.435 230.538H637.492V236.777C637.492 237.334 637.389 237.807 637.185 238.196C636.98 238.585 636.692 238.881 636.32 239.082C635.948 239.284 635.509 239.385 635.003 239.385C634.526 239.385 634.101 239.298 633.729 239.125C633.357 238.949 633.064 238.699 632.851 238.375C632.638 238.051 632.531 237.666 632.531 237.22H633.571C633.571 237.467 633.632 237.683 633.754 237.868C633.879 238.05 634.05 238.192 634.266 238.294C634.482 238.396 634.727 238.447 635.003 238.447C635.307 238.447 635.566 238.384 635.779 238.256C635.992 238.128 636.154 237.94 636.264 237.693C636.378 237.443 636.435 237.138 636.435 236.777V230.538ZM643.598 236.589V232.72H644.604V239.266H643.598V238.158H643.53C643.377 238.49 643.138 238.773 642.814 239.006C642.49 239.236 642.081 239.351 641.587 239.351C641.178 239.351 640.814 239.261 640.496 239.082C640.178 238.901 639.928 238.628 639.746 238.264C639.564 237.898 639.473 237.436 639.473 236.879V232.72H640.479V236.811C640.479 237.288 640.612 237.669 640.879 237.953C641.149 238.237 641.493 238.379 641.911 238.379C642.161 238.379 642.415 238.315 642.673 238.188C642.935 238.06 643.154 237.864 643.33 237.599C643.509 237.335 643.598 236.999 643.598 236.589ZM647.452 235.328V239.266H646.446V232.72H647.417V233.743H647.503C647.656 233.411 647.889 233.143 648.202 232.942C648.514 232.737 648.917 232.635 649.412 232.635C649.855 232.635 650.243 232.726 650.575 232.908C650.907 233.087 651.166 233.359 651.351 233.726C651.535 234.089 651.628 234.55 651.628 235.107V239.266H650.622V235.175C650.622 234.661 650.488 234.26 650.221 233.973C649.954 233.683 649.588 233.538 649.122 233.538C648.801 233.538 648.514 233.608 648.261 233.747C648.011 233.886 647.814 234.089 647.669 234.357C647.524 234.624 647.452 234.947 647.452 235.328ZM656.823 239.266V238.499L659.704 235.345C660.042 234.976 660.32 234.655 660.539 234.382C660.758 234.107 660.92 233.848 661.025 233.607C661.133 233.362 661.187 233.107 661.187 232.839C661.187 232.533 661.113 232.267 660.965 232.043C660.82 231.818 660.622 231.645 660.369 231.523C660.116 231.401 659.832 231.339 659.517 231.339C659.181 231.339 658.889 231.409 658.639 231.548C658.392 231.685 658.2 231.876 658.063 232.124C657.93 232.371 657.863 232.661 657.863 232.993H656.857C656.857 232.482 656.975 232.033 657.211 231.646C657.447 231.26 657.768 230.959 658.174 230.743C658.583 230.527 659.042 230.419 659.551 230.419C660.062 230.419 660.515 230.527 660.91 230.743C661.305 230.959 661.615 231.25 661.839 231.616C662.063 231.983 662.176 232.391 662.176 232.839C662.176 233.161 662.117 233.474 662.001 233.781C661.887 234.085 661.688 234.425 661.404 234.8C661.123 235.172 660.732 235.626 660.232 236.163L658.272 238.26V238.328H662.329V239.266H656.823ZM666.936 239.385C666.294 239.385 665.747 239.21 665.295 238.861C664.843 238.509 664.498 237.999 664.259 237.331C664.021 236.661 663.901 235.851 663.901 234.902C663.901 233.959 664.021 233.153 664.259 232.486C664.501 231.815 664.847 231.304 665.299 230.952C665.754 230.597 666.299 230.419 666.936 230.419C667.572 230.419 668.116 230.597 668.568 230.952C669.022 231.304 669.369 231.815 669.607 232.486C669.849 233.153 669.97 233.959 669.97 234.902C669.97 235.851 669.85 236.661 669.612 237.331C669.373 237.999 669.028 238.509 668.576 238.861C668.124 239.21 667.578 239.385 666.936 239.385ZM666.936 238.447C667.572 238.447 668.066 238.141 668.419 237.527C668.771 236.913 668.947 236.038 668.947 234.902C668.947 234.146 668.866 233.503 668.704 232.972C668.545 232.44 668.315 232.036 668.014 231.757C667.715 231.479 667.356 231.339 666.936 231.339C666.305 231.339 665.812 231.651 665.457 232.273C665.102 232.892 664.924 233.768 664.924 234.902C664.924 235.658 665.004 236.3 665.163 236.828C665.322 237.357 665.551 237.759 665.849 238.034C666.15 238.31 666.512 238.447 666.936 238.447ZM671.589 239.266V238.499L674.47 235.345C674.808 234.976 675.086 234.655 675.305 234.382C675.524 234.107 675.686 233.848 675.791 233.607C675.899 233.362 675.953 233.107 675.953 232.839C675.953 232.533 675.879 232.267 675.731 232.043C675.586 231.818 675.387 231.645 675.134 231.523C674.882 231.401 674.597 231.339 674.282 231.339C673.947 231.339 673.654 231.409 673.404 231.548C673.157 231.685 672.965 231.876 672.829 232.124C672.695 232.371 672.629 232.661 672.629 232.993H671.623C671.623 232.482 671.741 232.033 671.977 231.646C672.213 231.26 672.534 230.959 672.94 230.743C673.349 230.527 673.808 230.419 674.316 230.419C674.828 230.419 675.281 230.527 675.676 230.743C676.07 230.959 676.38 231.25 676.605 231.616C676.829 231.983 676.941 232.391 676.941 232.839C676.941 233.161 676.883 233.474 676.767 233.781C676.653 234.085 676.454 234.425 676.17 234.8C675.889 235.172 675.498 235.626 674.998 236.163L673.038 238.26V238.328H677.095V239.266H671.589ZM678.463 237.476V236.607L682.298 230.538H682.928V231.885H682.502L679.605 236.47V236.538H684.769V237.476H678.463ZM682.57 239.266V237.212V236.807V230.538H683.576V239.266H682.57Z" fill="#6C727F"/>
<path d="M17.25 221.119C16.608 221.119 16.0611 220.945 15.6094 220.595C15.1577 220.243 14.8125 219.733 14.5739 219.065C14.3352 218.395 14.2159 217.585 14.2159 216.636C14.2159 215.693 14.3352 214.888 14.5739 214.22C14.8153 213.55 15.1619 213.038 15.6136 212.686C16.0682 212.331 16.6136 212.153 17.25 212.153C17.8864 212.153 18.4304 212.331 18.8821 212.686C19.3366 213.038 19.6832 213.55 19.9219 214.22C20.1634 214.888 20.2841 215.693 20.2841 216.636C20.2841 217.585 20.1648 218.395 19.9261 219.065C19.6875 219.733 19.3423 220.243 18.8906 220.595C18.4389 220.945 17.892 221.119 17.25 221.119ZM17.25 220.182C17.8864 220.182 18.3807 219.875 18.733 219.261C19.0852 218.648 19.2614 217.773 19.2614 216.636C19.2614 215.881 19.1804 215.237 19.0185 214.706C18.8594 214.175 18.6293 213.77 18.3281 213.491C18.0298 213.213 17.6705 213.074 17.25 213.074C16.6193 213.074 16.1264 213.385 15.7713 214.007C15.4162 214.626 15.2386 215.503 15.2386 216.636C15.2386 217.392 15.3182 218.034 15.4773 218.562C15.6364 219.091 15.8651 219.493 16.1634 219.768C16.4645 220.044 16.8267 220.182 17.25 220.182Z" fill="#6C727F"/>
<path d="M6.69886 166.96V166.091L10.5341 160.023H11.1648V161.369H10.7386L7.84091 165.955V166.023H13.0057V166.96H6.69886ZM10.8068 168.75V166.696V166.291V160.023H11.8125V168.75H10.8068ZM17.3299 168.869C16.8299 168.869 16.3796 168.77 15.979 168.571C15.5785 168.372 15.2575 168.099 15.016 167.753C14.7745 167.406 14.6424 167.011 14.6197 166.568H15.6424C15.6822 166.963 15.8612 167.29 16.1793 167.548C16.5004 167.804 16.8839 167.932 17.3299 167.932C17.6879 167.932 18.006 167.848 18.2844 167.68C18.5657 167.513 18.7859 167.283 18.945 166.99C19.1069 166.695 19.1879 166.361 19.1879 165.989C19.1879 165.608 19.104 165.268 18.9364 164.97C18.7717 164.669 18.5444 164.432 18.2546 164.259C17.9648 164.085 17.6339 163.997 17.2617 163.994C16.9947 163.991 16.7205 164.033 16.4393 164.118C16.158 164.2 15.9265 164.307 15.7447 164.438L14.756 164.318L15.2844 160.023H19.8185V160.96H16.1708L15.864 163.534H15.9151C16.0941 163.392 16.3185 163.274 16.5884 163.18C16.8583 163.087 17.1396 163.04 17.4322 163.04C17.9663 163.04 18.4421 163.168 18.8597 163.423C19.2802 163.676 19.6097 164.023 19.8484 164.463C20.0898 164.903 20.2106 165.406 20.2106 165.972C20.2106 166.528 20.0856 167.026 19.8356 167.463C19.5884 167.898 19.2475 168.241 18.8129 168.494C18.3782 168.744 17.8839 168.869 17.3299 168.869Z" fill="#6C727F"/>
<path d="M9.69354 107.653C10.0515 107.656 10.4094 107.724 10.7674 107.858C11.1254 107.991 11.4521 108.213 11.7475 108.523C12.043 108.83 12.2802 109.249 12.4592 109.78C12.6381 110.311 12.7276 110.977 12.7276 111.778C12.7276 112.554 12.6538 113.243 12.506 113.845C12.3612 114.445 12.1509 114.95 11.8754 115.362C11.6026 115.774 11.2702 116.087 10.8782 116.3C10.489 116.513 10.0487 116.619 9.55717 116.619C9.06854 116.619 8.63246 116.523 8.24893 116.33C7.86825 116.134 7.55575 115.862 7.31143 115.516C7.06996 115.166 6.91513 114.761 6.84695 114.301H7.88672C7.98047 114.702 8.16655 115.033 8.44496 115.294C8.72621 115.553 9.09695 115.682 9.55717 115.682C10.2305 115.682 10.7617 115.388 11.1509 114.8C11.543 114.212 11.739 113.381 11.739 112.307H11.6708C11.5117 112.545 11.3228 112.751 11.104 112.925C10.8853 113.098 10.6424 113.232 10.3754 113.325C10.1083 113.419 9.82422 113.466 9.52308 113.466C9.02308 113.466 8.56428 113.342 8.14666 113.095C7.73189 112.845 7.3995 112.503 7.1495 112.068C6.90234 111.631 6.77876 111.131 6.77876 110.568C6.77876 110.034 6.89808 109.545 7.13672 109.102C7.3782 108.656 7.71626 108.301 8.15092 108.037C8.58842 107.773 9.10263 107.645 9.69354 107.653ZM9.69354 108.591C9.33558 108.591 9.01314 108.68 8.72621 108.859C8.44212 109.036 8.21626 109.274 8.04865 109.575C7.88388 109.874 7.80149 110.205 7.80149 110.568C7.80149 110.932 7.88104 111.263 8.04013 111.561C8.20206 111.857 8.42223 112.092 8.70064 112.268C8.98189 112.442 9.30149 112.528 9.65945 112.528C9.92933 112.528 10.1808 112.476 10.4137 112.371C10.6467 112.263 10.8498 112.116 11.0231 111.932C11.1992 111.744 11.337 111.533 11.4364 111.297C11.5359 111.058 11.5856 110.81 11.5856 110.551C11.5856 110.21 11.5032 109.891 11.3384 109.592C11.1765 109.294 10.9521 109.053 10.6651 108.868C10.381 108.683 10.0572 108.591 9.69354 108.591ZM17.25 116.619C16.608 116.619 16.0611 116.445 15.6094 116.095C15.1577 115.743 14.8125 115.233 14.5739 114.565C14.3352 113.895 14.2159 113.085 14.2159 112.136C14.2159 111.193 14.3352 110.388 14.5739 109.72C14.8153 109.05 15.1619 108.538 15.6136 108.186C16.0682 107.831 16.6136 107.653 17.25 107.653C17.8864 107.653 18.4304 107.831 18.8821 108.186C19.3366 108.538 19.6832 109.05 19.9219 109.72C20.1634 110.388 20.2841 111.193 20.2841 112.136C20.2841 113.085 20.1648 113.895 19.9261 114.565C19.6875 115.233 19.3423 115.743 18.8906 116.095C18.4389 116.445 17.892 116.619 17.25 116.619ZM17.25 115.682C17.8864 115.682 18.3807 115.375 18.733 114.761C19.0852 114.148 19.2614 113.273 19.2614 112.136C19.2614 111.381 19.1804 110.737 19.0185 110.206C18.8594 109.675 18.6293 109.27 18.3281 108.991C18.0298 108.713 17.6705 108.574 17.25 108.574C16.6193 108.574 16.1264 108.885 15.7713 109.507C15.4162 110.126 15.2386 111.003 15.2386 112.136C15.2386 112.892 15.3182 113.534 15.4773 114.062C15.6364 114.591 15.8651 114.993 16.1634 115.268C16.4645 115.544 16.8267 115.682 17.25 115.682Z" fill="#6C727F"/>
<path d="M4.45206 55.5227V64.25H3.39524V56.6307H3.34411L1.21342 58.0455V56.9716L3.39524 55.5227H4.45206ZM9.91087 64.3693C9.34837 64.3693 8.84695 64.2727 8.40661 64.0795C7.96911 63.8864 7.62109 63.6179 7.36257 63.2741C7.10689 62.9276 6.96768 62.5256 6.94496 62.0682H8.01882C8.04155 62.3494 8.13814 62.5923 8.30859 62.7969C8.47905 62.9986 8.70206 63.1548 8.97763 63.2656C9.2532 63.3764 9.55859 63.4318 9.89382 63.4318C10.2688 63.4318 10.6012 63.3665 10.891 63.2358C11.1808 63.1051 11.408 62.9233 11.5728 62.6903C11.7376 62.4574 11.82 62.1875 11.82 61.8807C11.82 61.5597 11.7404 61.277 11.5813 61.0327C11.4222 60.7855 11.1893 60.5923 10.8825 60.4531C10.5756 60.3139 10.2006 60.2443 9.75746 60.2443H9.05859V59.3068H9.75746C10.104 59.3068 10.408 59.2443 10.6694 59.1193C10.9336 58.9943 11.1396 58.8182 11.2873 58.5909C11.4379 58.3636 11.5131 58.0966 11.5131 57.7898C11.5131 57.4943 11.4478 57.2372 11.3171 57.0185C11.1864 56.7997 11.0018 56.6293 10.7631 56.5071C10.5273 56.3849 10.2489 56.3239 9.92791 56.3239C9.62678 56.3239 9.34268 56.3793 9.07564 56.4901C8.81143 56.598 8.59553 56.7557 8.42791 56.9631C8.2603 57.1676 8.16939 57.4148 8.15518 57.7045H7.13246C7.1495 57.2472 7.28729 56.8466 7.54581 56.5028C7.80433 56.1562 8.1424 55.8864 8.56001 55.6932C8.98047 55.5 9.44212 55.4034 9.94496 55.4034C10.4847 55.4034 10.9478 55.5128 11.3342 55.7315C11.7205 55.9474 12.0174 56.233 12.2248 56.5881C12.4322 56.9432 12.5359 57.3267 12.5359 57.7386C12.5359 58.2301 12.4066 58.6491 12.1481 58.9957C11.8924 59.3423 11.5444 59.5824 11.104 59.7159V59.7841C11.6552 59.875 12.0856 60.1094 12.3952 60.4872C12.7049 60.8622 12.8597 61.3267 12.8597 61.8807C12.8597 62.3551 12.7305 62.7812 12.4719 63.1591C12.2163 63.5341 11.8668 63.8295 11.4237 64.0455C10.9805 64.2614 10.4762 64.3693 9.91087 64.3693ZM17.3299 64.3693C16.8299 64.3693 16.3796 64.2699 15.979 64.071C15.5785 63.8722 15.2575 63.5994 15.016 63.2528C14.7745 62.9062 14.6424 62.5114 14.6197 62.0682H15.6424C15.6822 62.4631 15.8612 62.7898 16.1793 63.0483C16.5004 63.304 16.8839 63.4318 17.3299 63.4318C17.6879 63.4318 18.006 63.348 18.2844 63.1804C18.5657 63.0128 18.7859 62.7827 18.945 62.4901C19.1069 62.1946 19.1879 61.8608 19.1879 61.4886C19.1879 61.108 19.104 60.7685 18.9364 60.4702C18.7717 60.169 18.5444 59.9318 18.2546 59.7585C17.9648 59.5852 17.6339 59.4972 17.2617 59.4943C16.9947 59.4915 16.7205 59.5327 16.4393 59.6179C16.158 59.7003 15.9265 59.8068 15.7447 59.9375L14.756 59.8182L15.2844 55.5227H19.8185V56.4602H16.1708L15.864 59.0341H15.9151C16.0941 58.892 16.3185 58.7741 16.5884 58.6804C16.8583 58.5866 17.1396 58.5398 17.4322 58.5398C17.9663 58.5398 18.4421 58.6676 18.8597 58.9233C19.2802 59.1761 19.6097 59.5227 19.8484 59.9631C20.0898 60.4034 20.2106 60.9062 20.2106 61.4716C20.2106 62.0284 20.0856 62.5256 19.8356 62.9631C19.5884 63.3977 19.2475 63.7415 18.8129 63.9943C18.3782 64.2443 17.8839 64.3693 17.3299 64.3693Z" fill="#6C727F"/>
<path d="M4.49893 3.27273V12H3.44212V4.38068H3.39098L1.2603 5.79545V4.72159L3.44212 3.27273H4.49893ZM9.80433 12.1193C9.21911 12.1193 8.70206 12.0156 8.2532 11.8082C7.80717 11.598 7.45916 11.3097 7.20916 10.9432C6.95916 10.5739 6.83558 10.1534 6.83842 9.68182C6.83558 9.3125 6.90803 8.97159 7.05575 8.65909C7.20348 8.34375 7.40518 8.08097 7.66087 7.87074C7.91939 7.65767 8.20774 7.52273 8.52592 7.46591V7.41477C8.10831 7.30682 7.77592 7.07244 7.52876 6.71165C7.28161 6.34801 7.15945 5.93466 7.16229 5.47159C7.15945 5.02841 7.27166 4.6321 7.49893 4.28267C7.72621 3.93324 8.03871 3.65767 8.43643 3.45597C8.837 3.25426 9.29297 3.15341 9.80433 3.15341C10.31 3.15341 10.7617 3.25426 11.1594 3.45597C11.5572 3.65767 11.8697 3.93324 12.0969 4.28267C12.3271 4.6321 12.4435 5.02841 12.4464 5.47159C12.4435 5.93466 12.3171 6.34801 12.0671 6.71165C11.82 7.07244 11.4918 7.30682 11.0827 7.41477V7.46591C11.3981 7.52273 11.6822 7.65767 11.935 7.87074C12.1879 8.08097 12.3896 8.34375 12.5401 8.65909C12.6907 8.97159 12.7674 9.3125 12.7702 9.68182C12.7674 10.1534 12.6396 10.5739 12.3867 10.9432C12.1367 11.3097 11.7887 11.598 11.3427 11.8082C10.8995 12.0156 10.3867 12.1193 9.80433 12.1193ZM9.80433 11.1818C10.1992 11.1818 10.5401 11.1179 10.8271 10.9901C11.114 10.8622 11.3356 10.6818 11.4918 10.4489C11.6481 10.2159 11.7276 9.94318 11.7305 9.63068C11.7276 9.30114 11.6424 9.00994 11.4748 8.7571C11.3072 8.50426 11.0785 8.3054 10.7887 8.16051C10.5018 8.01562 10.1737 7.94318 9.80433 7.94318C9.43217 7.94318 9.09979 8.01562 8.80717 8.16051C8.5174 8.3054 8.28871 8.50426 8.12109 8.7571C7.95632 9.00994 7.87536 9.30114 7.8782 9.63068C7.87536 9.94318 7.95064 10.2159 8.10405 10.4489C8.2603 10.6818 8.48331 10.8622 8.77308 10.9901C9.06286 11.1179 9.40661 11.1818 9.80433 11.1818ZM9.80433 7.03977C10.1168 7.03977 10.3938 6.97727 10.6353 6.85227C10.8796 6.72727 11.0714 6.55256 11.2106 6.32812C11.3498 6.10369 11.4208 5.84091 11.4237 5.53977C11.4208 5.24432 11.3512 4.98722 11.2148 4.76847C11.0785 4.54687 10.8896 4.37642 10.6481 4.2571C10.4066 4.13494 10.1254 4.07386 9.80433 4.07386C9.47763 4.07386 9.19212 4.13494 8.9478 4.2571C8.70348 4.37642 8.51456 4.54687 8.38104 4.76847C8.24751 4.98722 8.18217 5.24432 8.18501 5.53977C8.18217 5.84091 8.24893 6.10369 8.3853 6.32812C8.5245 6.55256 8.71626 6.72727 8.96058 6.85227C9.2049 6.97727 9.48615 7.03977 9.80433 7.03977ZM17.25 12.1193C16.608 12.1193 16.0611 11.9446 15.6094 11.5952C15.1577 11.2429 14.8125 10.733 14.5739 10.0653C14.3352 9.39489 14.2159 8.58523 14.2159 7.63636C14.2159 6.69318 14.3352 5.88778 14.5739 5.22017C14.8153 4.54972 15.1619 4.03835 15.6136 3.68608C16.0682 3.33097 16.6136 3.15341 17.25 3.15341C17.8864 3.15341 18.4304 3.33097 18.8821 3.68608C19.3366 4.03835 19.6832 4.54972 19.9219 5.22017C20.1634 5.88778 20.2841 6.69318 20.2841 7.63636C20.2841 8.58523 20.1648 9.39489 19.9261 10.0653C19.6875 10.733 19.3423 11.2429 18.8906 11.5952C18.4389 11.9446 17.892 12.1193 17.25 12.1193ZM17.25 11.1818C17.8864 11.1818 18.3807 10.875 18.733 10.2614C19.0852 9.64773 19.2614 8.77273 19.2614 7.63636C19.2614 6.88068 19.1804 6.23722 19.0185 5.70597C18.8594 5.17472 18.6293 4.76989 18.3281 4.49148C18.0298 4.21307 17.6705 4.07386 17.25 4.07386C16.6193 4.07386 16.1264 4.38494 15.7713 5.0071C15.4162 5.62642 15.2386 6.50284 15.2386 7.63636C15.2386 8.39205 15.3182 9.03409 15.4773 9.5625C15.6364 10.0909 15.8651 10.4929 16.1634 10.7685C16.4645 11.044 16.8267 11.1818 17.25 11.1818Z" fill="#6C727F"/>
<path d="M52 22.8359L174.4 71.6029L296.8 35.6089L419.2 25.1589L541.6 39.0919L664 72.7639" stroke="#A4C3F5" stroke-width="2" stroke-linecap="round" stroke-linejoin="round"/>
<path d="M52 48.3794L174.4 89.0184L296.8 43.7344L419.2 86.6964L541.6 56.5074L664 48.3794" stroke="#C951E7" stroke-width="2" stroke-linecap="round" stroke-linejoin="round"/>
<path d="M52 59.9909L174.4 36.7689L296.8 48.3799L419.2 71.6019L541.6 25.1579L664 13.5469" stroke="#4061DB" stroke-width="2" stroke-linecap="round" stroke-linejoin="round"/>
</svg>
