<svg width="59" height="24" viewBox="0 0 59 24" fill="none" xmlns="http://www.w3.org/2000/svg">
<path d="M24.41 23H11.54C9.88 23 8.34 22.76 6.92 22.28C5.52 21.78 4.31 21.06 3.29 20.12C2.27 19.18 1.47 18.04 0.89 16.7C0.31 15.36 0.0200001 13.83 0.0200001 12.11C0.0200001 10.51 0.31 9.04 0.89 7.7C1.49 6.36 2.3 5.21 3.32 4.25C4.34 3.29 5.54 2.55 6.92 2.03C8.3 1.49 9.78 1.22 11.36 1.22C12.94 1.22 14.42 1.49 15.8 2.03C17.18 2.57 18.38 3.32 19.4 4.28C20.42 5.24 21.22 6.39 21.8 7.73C22.4 9.05 22.7 10.51 22.7 12.11C22.7 12.87 22.61 13.61 22.43 14.33C22.27 15.05 22.02 15.73 21.68 16.37C21.34 17.01 20.9 17.59 20.36 18.11C19.82 18.61 19.19 19.02 18.47 19.34V19.4H24.41V23ZM4.88 12.11C4.88 13.03 5.05 13.89 5.39 14.69C5.73 15.49 6.19 16.19 6.77 16.79C7.37 17.37 8.06 17.83 8.84 18.17C9.62 18.51 10.46 18.68 11.36 18.68C12.26 18.68 13.1 18.51 13.88 18.17C14.66 17.83 15.34 17.37 15.92 16.79C16.52 16.19 16.99 15.49 17.33 14.69C17.67 13.89 17.84 13.03 17.84 12.11C17.84 11.19 17.67 10.33 17.33 9.53C16.99 8.73 16.52 8.04 15.92 7.46C15.34 6.86 14.66 6.39 13.88 6.05C13.1 5.71 12.26 5.54 11.36 5.54C10.46 5.54 9.62 5.71 8.84 6.05C8.06 6.39 7.37 6.86 6.77 7.46C6.19 8.04 5.73 8.73 5.39 9.53C5.05 10.33 4.88 11.19 4.88 12.11ZM38.9769 23H34.6569V21.02H34.5969C34.4369 21.3 34.2269 21.58 33.9669 21.86C33.7269 22.14 33.4269 22.39 33.0669 22.61C32.7069 22.83 32.2969 23.01 31.8369 23.15C31.3769 23.29 30.8769 23.36 30.3369 23.36C29.1969 23.36 28.2669 23.19 27.5469 22.85C26.8469 22.49 26.2969 22 25.8969 21.38C25.5169 20.76 25.2569 20.03 25.1169 19.19C24.9969 18.35 24.9369 17.44 24.9369 16.46V8.42H29.4369V15.56C29.4369 15.98 29.4469 16.42 29.4669 16.88C29.5069 17.32 29.5969 17.73 29.7369 18.11C29.8969 18.49 30.1269 18.8 30.4269 19.04C30.7469 19.28 31.1969 19.4 31.7769 19.4C32.3569 19.4 32.8269 19.3 33.1869 19.1C33.5469 18.88 33.8169 18.6 33.9969 18.26C34.1969 17.9 34.3269 17.5 34.3869 17.06C34.4469 16.62 34.4769 16.16 34.4769 15.68V8.42H38.9769V23ZM41.0234 8.42H45.5234V23H41.0234V8.42ZM40.6634 3.83C40.6634 3.11 40.9134 2.5 41.4134 2C41.9334 1.48 42.5534 1.22 43.2734 1.22C43.9934 1.22 44.6034 1.48 45.1034 2C45.6234 2.5 45.8834 3.11 45.8834 3.83C45.8834 4.55 45.6234 5.17 45.1034 5.69C44.6034 6.19 43.9934 6.44 43.2734 6.44C42.5534 6.44 41.9334 6.19 41.4134 5.69C40.9134 5.17 40.6634 4.55 40.6634 3.83ZM47.6164 0.319999H52.1164V23H47.6164V0.319999ZM54.2094 0.319999H58.7094V23H54.2094V0.319999Z" fill="#212121"/>
</svg>
