<svg width="46" height="56" viewBox="0 0 46 56" fill="none" xmlns="http://www.w3.org/2000/svg">
<g clip-path="url(#clip0_18580_32160)">
<path d="M39.5231 40.0527L29.7895 34.4453C28.4233 33.6587 26.6753 34.1279 25.8795 35.4895C25.5803 36.0038 25.4515 36.5995 25.5115 37.1915V48.1533C25.5115 49.7219 26.7857 50.9915 28.3635 50.9915C29.9321 50.9915 31.2109 49.7173 31.2109 48.1533V41.8513L36.6665 44.9931C38.0327 45.7843 39.7853 45.3105 40.5765 43.9489C41.3631 42.5827 40.8939 40.8393 39.5231 40.0527ZM15.3133 28.0329C15.3317 27.0209 14.7935 26.0779 13.9149 25.5673L4.18133 19.9645C3.75813 19.7207 3.27513 19.5919 2.78753 19.5919C1.78933 19.5919 0.86013 20.1255 0.36333 20.9857C-0.40947 22.3151 0.0505298 24.0217 1.38913 24.7945L7.00113 28.0237L1.38913 31.2575C1.07042 31.4388 0.791108 31.682 0.56757 31.9727C0.344032 32.2633 0.180762 32.5957 0.0873298 32.9503C-0.10587 33.6679 -0.00927015 34.4223 0.36333 35.0663C0.735738 35.7064 1.34632 36.173 2.0617 36.3644C2.77708 36.5557 3.53911 36.4562 4.18133 36.0875L13.9149 30.4801C14.7889 29.9741 15.3225 29.0357 15.3133 28.0329ZM6.38933 15.9901L16.1229 21.5975C17.2591 22.2553 18.6575 22.0391 19.5545 21.1697C19.8448 20.9039 20.0766 20.5805 20.235 20.2201C20.3934 19.8597 20.475 19.4703 20.4745 19.0767V7.83889C20.4745 6.27029 19.2003 4.99609 17.6271 4.99609C16.0539 4.99609 14.7751 6.27029 14.7751 7.83889V14.2329L9.24593 11.0497C7.87973 10.2585 6.13173 10.7277 5.33593 12.0893C4.95858 12.7463 4.85757 13.5263 5.0551 14.2578C5.25264 14.9892 5.73254 15.6123 6.38933 15.9901ZM28.2807 28.4883C28.2807 28.7045 28.1565 28.9989 28.0047 29.1599L24.1453 33.0101C23.9935 33.1619 23.6899 33.2861 23.4737 33.2861H22.4893C22.2731 33.2861 21.9695 33.1619 21.8177 33.0101L17.9537 29.1599C17.8019 29.0035 17.6777 28.7045 17.6777 28.4883V27.5085C17.6777 27.2877 17.8019 26.9933 17.9537 26.8369L21.8177 22.9821C21.9695 22.8303 22.2731 22.7061 22.4893 22.7061H23.4737C23.6899 22.7061 23.9935 22.8303 24.1453 22.9821L28.0047 26.8369C28.1565 26.9887 28.2807 27.2877 28.2807 27.5085V28.4883ZM24.8353 28.0145V27.9731C24.8353 27.8167 24.7433 27.5959 24.6329 27.4809L23.4921 26.3493C23.3817 26.2343 23.1609 26.1423 22.9999 26.1423H22.9585C22.8021 26.1423 22.5813 26.2343 22.4663 26.3493L21.3301 27.4809C21.2197 27.5913 21.1277 27.8121 21.1277 27.9731V28.0145C21.1277 28.1755 21.2197 28.3963 21.3301 28.5067L22.4663 29.6429C22.5813 29.7533 22.8021 29.8453 22.9585 29.8453H22.9999C23.1609 29.8453 23.3817 29.7533 23.4921 29.6429L24.6329 28.5067C24.7433 28.3963 24.8353 28.1801 24.8353 28.0145ZM29.7895 21.5975L39.5231 15.9901C40.8893 15.2035 41.3631 13.4555 40.5719 12.0939C39.7807 10.7277 38.0327 10.2631 36.6619 11.0543L31.2063 14.1961V7.83889C31.2063 6.27029 29.9321 4.99609 28.3589 4.99609C26.7857 4.99609 25.5069 6.27029 25.5069 7.83889V18.8513C25.4517 19.4217 25.5667 20.0151 25.8749 20.5533C26.2564 21.21 26.8826 21.6887 27.6164 21.8845C28.3502 22.0802 29.1317 21.977 29.7895 21.5975ZM18.0779 34.1141C17.4091 33.9876 16.7171 34.1051 16.1275 34.4453L6.38933 40.0527C5.02313 40.8393 4.54933 42.5827 5.34053 43.9489C5.72073 44.6057 6.34617 45.0846 7.07936 45.2804C7.81256 45.4762 8.59351 45.3729 9.25053 44.9931L14.7797 41.8099V48.1533C14.7797 49.7219 16.0539 50.9915 17.6317 50.9915C19.2003 50.9915 20.4791 49.7173 20.4791 48.1533V36.9201C20.4764 36.2437 20.2335 35.5902 19.7937 35.0762C19.3539 34.5623 18.7458 34.2213 18.0779 34.1141ZM45.6043 20.9535C44.8177 19.5873 43.0651 19.1181 41.6943 19.9093L31.9653 25.5121C31.5239 25.7667 31.1586 26.1347 30.9071 26.5779C30.6556 27.021 30.527 27.5234 30.5347 28.0329C30.5292 28.5389 30.6589 29.0372 30.9104 29.4763C31.1619 29.9154 31.5261 30.2794 31.9653 30.5307L41.6989 36.1381C43.0651 36.9247 44.8131 36.4555 45.6089 35.0939C46.4001 33.7277 45.9263 31.9843 44.5601 31.1977L39.0493 28.0237L44.5601 24.8497C44.8854 24.6632 45.1705 24.4143 45.3992 24.1173C45.6279 23.8202 45.7955 23.4809 45.8926 23.1188C45.9896 22.7567 46.0141 22.379 45.9647 22.0074C45.9152 21.6357 45.7927 21.2776 45.6043 20.9535Z" fill="#2CB5E8"/>
</g>
<defs>
<clipPath id="clip0_18580_32160">
<rect width="46" height="46" fill="white" transform="translate(0 5)"/>
</clipPath>
</defs>
</svg>
