<svg width="60" height="60" viewBox="0 0 60 60" fill="none" xmlns="http://www.w3.org/2000/svg">
<g clip-path="url(#clip0_2949_1655)">
<path d="M0.5 1V28.5C0.5 45.6208 14.3792 59.5 31.5 59.5H59M12.5 1V28.5C12.5 39.5457 21.4543 48.5 32.5 48.5H59M24.5 1V28.5C24.5 33.4706 28.5294 37.5 33.5 37.5H59" stroke="#D1D1D1" stroke-dasharray="2 2"/>
<path d="M60 37H59V38H60V37Z" fill="#D1D1D1"/>
<path d="M60 48H59V49H60V48Z" fill="#D1D1D1"/>
<path d="M25 0H24V1H25V0Z" fill="#D1D1D1"/>
<path d="M13 0H12V1H13V0Z" fill="#D1D1D1"/>
<path d="M1 0H0V1H1V0Z" fill="#D1D1D1"/>
<path d="M60 59H59V60H60V59Z" fill="#D1D1D1"/>
</g>
<defs>
<clipPath id="clip0_2949_1655">
<rect width="60" height="60" fill="white"/>
</clipPath>
</defs>
</svg>
