<svg width="358" height="340" viewBox="0 0 358 340" fill="none" xmlns="http://www.w3.org/2000/svg">
<rect x="186" y="17" width="4" height="309" fill="#5A5050"/>
<rect x="80" y="95" width="4" height="161" fill="#5A5050"/>
<rect x="231" y="117" width="4" height="47" fill="#5A5050"/>
<rect x="279.883" y="114.539" width="4" height="131.36" transform="rotate(45 279.883 114.539)" fill="#5A5050"/>
<rect x="333.977" y="145.906" width="4" height="57.2591" transform="rotate(45 333.977 145.906)" fill="#5A5050"/>
<rect x="233.625" y="21.3516" width="4" height="65.9365" transform="rotate(45 233.625 21.3516)" fill="#5A5050"/>
<rect x="333.977" y="214" width="4" height="55.12" transform="rotate(45 333.977 214)" fill="#5A5050"/>
<rect x="253" y="216.828" width="4" height="55.12" transform="rotate(-45 253 216.828)" fill="#5A5050"/>
<rect x="125.367" y="70.1953" width="4" height="87.1276" transform="rotate(-45 125.367 70.1953)" fill="#5A5050"/>
<rect x="148" y="234.828" width="4" height="55.12" transform="rotate(-45 148 234.828)" fill="#5A5050"/>
<rect x="15.8203" y="124.648" width="4" height="91.9626" transform="rotate(-45 15.8203 124.648)" fill="#5A5050"/>
<rect x="22.4688" y="199.297" width="4" height="79.776" transform="rotate(-45 22.4688 199.297)" fill="#5A5050"/>
<path d="M127 208L131 209.5L129.5 211L81.8284 258.703L79 255.875L127 208Z" fill="#5A5050"/>
<path d="M127 140H131V209.5L130 210.5L129 210.539H127V140Z" fill="#5A5050"/>
<rect x="293" y="164" width="4" height="90" fill="#5A5050"/>
<rect x="296.172" y="251.953" width="4" height="131.36" transform="rotate(57 296.172 251.953)" fill="#5A5050"/>
<rect x="78" y="255.352" width="4" height="131.36" transform="rotate(-57 78 255.352)" fill="#5A5050"/>
<rect x="165" y="186" width="46" height="46" rx="23" fill="#4340DB" fill-opacity="0.7"/>
<rect x="59" y="231" width="46" height="46" rx="23" fill="#4340DB" fill-opacity="0.7"/>
<rect x="324" y="123" width="34" height="34" rx="17" fill="#6FA4F3" fill-opacity="0.7"/>
<rect x="132" y="218" width="34" height="34" rx="17" fill="#6FA4F3" fill-opacity="0.7"/>
<rect x="278" y="239" width="34" height="34" rx="17" fill="#6FA4F3" fill-opacity="0.7"/>
<rect x="171" y="109" width="34" height="34" rx="17" fill="#6FA4F3" fill-opacity="0.7"/>
<rect x="65" y="78" width="34" height="34" rx="17" fill="#6FA4F3" fill-opacity="0.7"/>
<rect x="5" y="180" width="34" height="34" rx="17" fill="#6FA4F3" fill-opacity="0.7"/>
<rect x="263" y="100" width="34" height="34" rx="17" fill="#6FA4F3" fill-opacity="0.7"/>
<rect x="216" y="7" width="34" height="34" rx="17" fill="#6FA4F3" fill-opacity="0.7"/>
<rect x="216" y="100" width="34" height="34" rx="17" fill="#4340DB" fill-opacity="0.7"/>
<rect x="277" y="138" width="34" height="34" rx="17" fill="#4340DB" fill-opacity="0.7"/>
<rect x="171" width="34" height="34" rx="17" fill="#4340DB" fill-opacity="0.7"/>
<rect x="112" y="126" width="34" height="34" rx="17" fill="#4340DB" fill-opacity="0.7"/>
<rect y="107" width="34" height="34" rx="17" fill="#4340DB" fill-opacity="0.7"/>
<rect x="231" y="193" width="34" height="34" rx="17" fill="#4340DB" fill-opacity="0.7"/>
<rect x="171" y="306" width="34" height="34" rx="17" fill="#4340DB" fill-opacity="0.7"/>
<rect x="324" y="192" width="34" height="34" rx="17" fill="#4340DB" fill-opacity="0.7"/>
<rect x="105" y="46" width="46" height="46" rx="23" fill="#4340DB" fill-opacity="0.7"/>
<rect x="59" y="163" width="46" height="46" rx="23" fill="#6FA4F3" fill-opacity="0.7"/>
<rect x="210" y="140" width="46" height="46" rx="23" fill="#6FA4F3" fill-opacity="0.7"/>
<rect x="175" y="196" width="26" height="27" rx="13" fill="#4340DB"/>
<rect x="69" y="241" width="26" height="27" rx="13" fill="#4340DB"/>
<rect x="332" y="131" width="18" height="18" rx="9" fill="#6FA4F3"/>
<rect x="140" y="226" width="18" height="18" rx="9" fill="#6FA4F3"/>
<rect x="286" y="247" width="18" height="18" rx="9" fill="#6FA4F3"/>
<rect x="179" y="117" width="18" height="18" rx="9" fill="#6FA4F3"/>
<rect x="73" y="86" width="18" height="18" rx="9" fill="#6FA4F3"/>
<rect x="13" y="188" width="18" height="18" rx="9" fill="#6FA4F3"/>
<rect x="271" y="108" width="18" height="18" rx="9" fill="#6FA4F3"/>
<rect x="224" y="15" width="18" height="18" rx="9" fill="#6FA4F3"/>
<rect x="224" y="108" width="18" height="18" rx="9" fill="#4340DB"/>
<rect x="285" y="146" width="18" height="18" rx="9" fill="#4340DB"/>
<rect x="179" y="8" width="18" height="18" rx="9" fill="#4340DB"/>
<rect x="120" y="134" width="18" height="18" rx="9" fill="#4340DB"/>
<rect x="8" y="115" width="18" height="18" rx="9" fill="#4340DB"/>
<rect x="239" y="201" width="18" height="18" rx="9" fill="#4340DB"/>
<rect x="179" y="314" width="18" height="18" rx="9" fill="#4340DB"/>
<rect x="332" y="200" width="18" height="18" rx="9" fill="#4340DB"/>
<rect x="115" y="56" width="26" height="27" rx="13" fill="#4340DB"/>
<rect x="69" y="173" width="26" height="27" rx="13" fill="#6FA4F3"/>
<rect x="220" y="150" width="26" height="26" rx="13" fill="#6FA4F3"/>
</svg>
